<svg xmlns="http://www.w3.org/2000/svg" xmlns:xlink="http://www.w3.org/1999/xlink" viewBox="0 0 60.77 39.2"><defs><style>.cls-1{fill:#fff;stroke:#000;stroke-miterlimit:10;stroke-width:0.15px;}.cls-2{fill:#df6826;}.cls-3{fill:url(#radial-gradient);}.cls-4{fill:url(#radial-gradient-2);}.cls-5{fill:url(#radial-gradient-3);}.cls-6{fill:url(#radial-gradient-4);}.cls-7{fill:#010101;}.cls-8{fill:url(#linear-gradient);}.cls-9{fill:url(#linear-gradient-2);}.cls-10{fill:url(#linear-gradient-3);}.cls-11{fill:url(#radial-gradient-5);}.cls-12{fill:url(#linear-gradient-4);}</style><radialGradient id="radial-gradient" cx="27.1" cy="18.01" r="3.18" gradientUnits="userSpaceOnUse"><stop offset="0" stop-color="#febf10"/><stop offset="0.43" stop-color="#febd11"/><stop offset="0.65" stop-color="#fcb514"/><stop offset="0.84" stop-color="#faa719"/><stop offset="0.86" stop-color="#faa51a"/><stop offset="0.98" stop-color="#f9a11b"/></radialGradient><radialGradient id="radial-gradient-2" cx="33.02" cy="16.86" r="4.37" xlink:href="#radial-gradient"/><radialGradient id="radial-gradient-3" cx="40.04" cy="16.86" r="4.37" xlink:href="#radial-gradient"/><radialGradient id="radial-gradient-4" cx="46.98" cy="16.86" r="4.37" xlink:href="#radial-gradient"/><linearGradient id="linear-gradient" x1="47.73" y1="29.04" x2="51.94" y2="29.04" gradientUnits="userSpaceOnUse"><stop offset="0" stop-color="#fff"/><stop offset="0.07" stop-color="#ededf0"/><stop offset="0.17" stop-color="#d9d9e0"/><stop offset="0.24" stop-color="#d2d2da"/><stop offset="0.54" stop-color="#e1e1e6"/><stop offset="1" stop-color="#f5f5f5"/></linearGradient><linearGradient id="linear-gradient-2" x1="39.7" y1="29.04" x2="43.91" y2="29.04" xlink:href="#linear-gradient"/><linearGradient id="linear-gradient-3" x1="11.36" y1="29.04" x2="15.57" y2="29.04" xlink:href="#linear-gradient"/><radialGradient id="radial-gradient-5" cx="12.84" cy="18.73" r="7.99" xlink:href="#radial-gradient"/><linearGradient id="linear-gradient-4" x1="8.51" y1="14.51" x2="17.83" y2="14.51" gradientUnits="userSpaceOnUse"><stop offset="0" stop-color="#fff"/><stop offset="0.09" stop-color="#fbfbfc"/><stop offset="0.63" stop-color="#e8e7ea"/><stop offset="1" stop-color="#e1e0e3"/></linearGradient></defs><title>big-truck</title><g id="Layer_2" data-name="Layer 2"><g id="Layer_1-2" data-name="Layer 1"><rect class="cls-1" x="0.08" y="0.08" width="60.62" height="39.04" rx="12.38" ry="12.38"/><path class="cls-2" d="M52.73,23.57H21.59v-13h0l0-.14v-.22h.05L22,8.71,17.75,7.5l0-.45,5.18.54.38,0,.14.64.43,1.91H50.11l4.3,13.39V25a1.8,1.8,0,0,1,.35,1.07v.16A1.78,1.78,0,0,1,53.5,28a4,4,0,0,0-7.63.07H45.5a4,4,0,0,0-7.66,0H21.05V24.31H52.73Z"/><polygon class="cls-3" points="25.84 13.68 25.84 22.33 28.35 22.33 25.84 13.68"/><polygon class="cls-4" points="32.71 11.38 30.15 11.38 33.34 22.33 35.89 22.33 32.71 11.38"/><polygon class="cls-5" points="39.72 11.38 37.16 11.38 40.35 22.33 42.91 22.33 39.72 11.38"/><polygon class="cls-6" points="46.67 11.38 44.11 11.38 47.29 22.33 49.85 22.33 46.67 11.38"/><path class="cls-7" d="M49.84,25.93a3.11,3.11,0,1,1-3,3.11A3.08,3.08,0,0,1,49.84,25.93Z"/><path class="cls-8" d="M49.84,31.2A2.16,2.16,0,1,0,47.73,29,2.13,2.13,0,0,0,49.84,31.2Z"/><path class="cls-7" d="M41.81,25.93a3.11,3.11,0,1,1-3,3.11A3.08,3.08,0,0,1,41.81,25.93Z"/><path class="cls-9" d="M41.81,31.2A2.16,2.16,0,1,0,39.7,29,2.13,2.13,0,0,0,41.81,31.2Z"/><path class="cls-7" d="M13.46,25.93a3.11,3.11,0,1,1-3,3.11A3.08,3.08,0,0,1,13.46,25.93Z"/><path class="cls-10" d="M13.46,31.2A2.16,2.16,0,1,0,11.36,29,2.14,2.14,0,0,0,13.46,31.2Z"/><path class="cls-11" d="M6,20.83V18.89l1.9-8.56c0-.59.84-.59,1.16-.59h10c.32,0,.58.06.58.59V25.91c0,1.56-.26,1.82-.58,1.82H17a4,4,0,0,0-7.42,0h-3A.58.58,0,0,1,6,27.14v-3h.55V20.83Z"/><rect class="cls-7" x="15.2" y="18.42" width="2.19" height="0.46"/><polygon class="cls-12" points="17.83 17.69 17.83 11.32 9.46 11.32 8.51 17.69 17.83 17.69"/><path class="cls-7" d="M8.11,26.35H9.66a4.48,4.48,0,0,1,1.4-1.47h-3Z"/></g></g></svg>