<svg xmlns="http://www.w3.org/2000/svg" viewBox="0 0 60.77 39.2"><defs><style>.cls-1{fill:#fff;stroke:#000;stroke-miterlimit:10;stroke-width:0.15px;}.cls-2{fill:#c4b3a2;}.cls-3{fill:#4d4348;}.cls-4{fill:#3b3237;}.cls-5{fill:#3e322e;}.cls-6{fill:#4d403c;}.cls-7{fill:#69514b;}.cls-8{fill:#61565b;}.cls-9{fill:#94898f;}.cls-10{fill:#5c281e;}.cls-11{fill:#a44735;}.cls-12{fill:#513c35;}.cls-13{fill:#aabcc2;}.cls-14{fill:#7f9aa0;}.cls-15{fill:#b6dae2;}.cls-16{fill:#647e83;}.cls-17{fill:#997770;}.cls-18{fill:#c5d9dd;}.cls-19{fill:#7fb2c2;}.cls-20{fill:#5f929e;}.cls-21{fill:#9bbdc6;}.cls-22{fill:#9bcad6;}.cls-23{fill:#806e77;}.cls-24{fill:#d68d88;}.cls-25{fill:#d1e9ef;}.cls-26{fill:#d14746;}.cls-27{fill:#a13636;}.cls-28{fill:#c13e3e;}.cls-29{fill:#73666e;}.cls-30{fill:#546567;}.cls-31{fill:#7b6f76;}.cls-32{fill:#a65f3b;}.cls-33{fill:#ca6d43;}.cls-34{fill:#803a24;}.cls-35{fill:#f37575;}.cls-36{fill:#dea573;}</style></defs><title>bike</title><g id="Layer_2" data-name="Layer 2"><g id="Layer_1-2" data-name="Layer 1"><rect class="cls-1" x="0.08" y="0.08" width="60.62" height="39.04" rx="12.38" ry="12.38" transform="translate(60.77 39.2) rotate(-180)"/><path class="cls-2" d="M51.4,28.44l-1.83-1.83A8.74,8.74,0,0,1,51.4,28.44Z"/><path class="cls-2" d="M47.09,24.13,45.26,22.3A8.74,8.74,0,0,1,47.09,24.13Z"/><path class="cls-2" d="M45.26,28.37l1.83-1.83A8.74,8.74,0,0,1,45.26,28.37Z"/><path class="cls-2" d="M49.57,24.06l1.83-1.83A9,9,0,0,1,49.57,24.06Z"/><path class="cls-2" d="M44,25.29h2.59A9.12,9.12,0,0,1,44,25.29Z"/><path class="cls-2" d="M50.12,25.29h2.59A9.12,9.12,0,0,1,50.12,25.29Z"/><path class="cls-2" d="M48.41,21v2.59A9.12,9.12,0,0,1,48.41,21Z"/><path class="cls-2" d="M48.41,27.09v2.59A9.12,9.12,0,0,1,48.41,27.09Z"/><path class="cls-2" d="M15.41,28.44l-1.83-1.83A8.74,8.74,0,0,1,15.41,28.44Z"/><path class="cls-2" d="M11.1,24.13,9.27,22.3A8.74,8.74,0,0,1,11.1,24.13Z"/><path class="cls-2" d="M9.27,28.37l1.83-1.83A8.74,8.74,0,0,1,9.27,28.37Z"/><path class="cls-2" d="M13.58,24.06l1.83-1.83A9,9,0,0,1,13.58,24.06Z"/><path class="cls-2" d="M8,25.29h2.59A9.12,9.12,0,0,1,8,25.29Z"/><path class="cls-2" d="M14.13,25.29h2.59A9.12,9.12,0,0,1,14.13,25.29Z"/><path class="cls-2" d="M12.42,21v2.59A9.12,9.12,0,0,1,12.42,21Z"/><path class="cls-2" d="M12.42,27.09v2.59A9.12,9.12,0,0,1,12.42,27.09Z"/><path class="cls-3" d="M20,13.41a9.44,9.44,0,0,0,1.26-3.76,6.4,6.4,0,0,1,.5-1.83,1.76,1.76,0,0,1,.72-.68,1.29,1.29,0,0,1,1.25.2l.11-.13A1.4,1.4,0,0,0,22.5,7a2,2,0,0,0-.83.78,6.29,6.29,0,0,0-.52,1.88,9.35,9.35,0,0,1-1.23,3.68Z"/><path class="cls-3" d="M19.86,13c.71-.85,1-2.57,1.26-4a6.87,6.87,0,0,1,.47-1.92,1.23,1.23,0,0,1,.7-.55c.35-.08.74.11,1.17.55l.1-.1a1.37,1.37,0,0,0-1.27-.58,1.36,1.36,0,0,0-.8.63A6.72,6.72,0,0,0,21,9c-.24,1.37-.54,3.08-1.22,3.88Z"/><path class="cls-2" d="M47,25.41A1.37,1.37,0,1,0,48.4,24,1.37,1.37,0,0,0,47,25.41Zm.2,0a1.17,1.17,0,1,1,1.17,1.16A1.16,1.16,0,0,1,47.23,25.41Z"/><polygon class="cls-4" points="20.19 16.16 19.07 15.05 20.67 12.4 22.87 12.8 20.19 16.16"/><path class="cls-2" d="M10.9,25.41a1.48,1.48,0,1,0,1.48-1.47A1.47,1.47,0,0,0,10.9,25.41Zm.23,0a1.25,1.25,0,1,1,1.25,1.25A1.24,1.24,0,0,1,11.13,25.41Z"/><path class="cls-2" d="M13.24,25.41a.87.87,0,1,1-.86-.87A.86.86,0,0,1,13.24,25.41Z"/><path class="cls-3" d="M20,16.36l6.47,13.38,12.56.05s-1-8.13,5-11.15l-8.9-.81a2.22,2.22,0,0,0-.3.52L21.72,12.52ZM30.17,26.92l-.26-.77,2.66-5.88L33.89,20a10.47,10.47,0,0,0,1.48,6.59Z"/><path class="cls-4" d="M34,19c-.59,1.45-2.93.62-5.95.4-2.08-.15-4.31.1-5-.49-.47-.4-2.43-1.78-2.57-2.56-.38-2,2.08-3.46,3.22-4.87C25,9.86,35,16.66,34,19Z"/><path class="cls-2" d="M5.89,25.41A6.49,6.49,0,1,0,12.38,19,6.44,6.44,0,0,0,5.89,25.41Zm1.9.11a4.59,4.59,0,1,1,4.7,4.41A4.55,4.55,0,0,1,7.79,25.52Z"/><path class="cls-5" d="M5.27,25.41a7.11,7.11,0,1,0,7.11-7A7.05,7.05,0,0,0,5.27,25.41Zm2.08.12a5,5,0,1,1,5.15,4.83A5,5,0,0,1,7.35,25.53Z"/><path class="cls-6" d="M12.08,18.63a5,5,0,0,1,5.15,4.83,5.49,5.49,0,0,1,0,.58A5,5,0,0,0,7.37,25a5,5,0,0,1,4.71-6.32Z"/><path class="cls-6" d="M12.2,30.59a7.05,7.05,0,0,0,7.1-6.73,6.64,6.64,0,0,1,.18,1.55,7.11,7.11,0,0,1-14.21,0c0-.09,0-.18,0-.27A7.08,7.08,0,0,0,12.2,30.59Z"/><path class="cls-7" d="M4.71,25.41a7.67,7.67,0,1,0,7.67-7.56A7.62,7.62,0,0,0,4.71,25.41Zm1.4,0a6.27,6.27,0,1,1,6.27,6.18A6.22,6.22,0,0,1,6.11,25.41Z"/><path class="cls-2" d="M41.91,25.41A6.49,6.49,0,1,0,48.4,19,6.44,6.44,0,0,0,41.91,25.41Zm1.9.11a4.59,4.59,0,1,1,4.69,4.41A4.55,4.55,0,0,1,43.81,25.52Z"/><path class="cls-5" d="M41.29,25.41a7.11,7.11,0,1,0,7.11-7A7.05,7.05,0,0,0,41.29,25.41Zm2.08.12a5,5,0,1,1,5.15,4.83A5,5,0,0,1,43.37,25.53Z"/><path class="cls-7" d="M40.73,25.41a7.67,7.67,0,1,0,7.67-7.56A7.62,7.62,0,0,0,40.73,25.41Zm1.4,0a6.27,6.27,0,1,1,6.27,6.18A6.22,6.22,0,0,1,42.13,25.41Z"/><path class="cls-8" d="M52.56,17.39c-1.22-.28-2.38-.39-5.78.39-2.72.62-3.6,1.69-4.28,1.51-1.35-.34-1.36-3,1.25-3.54C47.49,15,51.08,16.16,52.56,17.39Z"/><path class="cls-9" d="M43,16.71a1.8,1.8,0,0,0-1.25.66,2.65,2.65,0,0,1,2.08-1.75,11.54,11.54,0,0,1,8.78,1.77l-.38-.08A19.35,19.35,0,0,0,43,16.71Z"/><path class="cls-9" d="M42,19a1.26,1.26,0,0,1-.28-.4A2.63,2.63,0,0,0,42,19Z"/><path class="cls-4" d="M39.05,22.64a9.36,9.36,0,0,0-.81,3.79L35.48,27l-.77-4.3Z"/><path class="cls-4" d="M43.35,19.09c-1.71.73-4.67,4.94-7.4,5.69-1,.28-1.81-1.41-2-2.14A14.33,14.33,0,0,1,34,18Z"/><path class="cls-10" d="M42.44,18.33c-1.36,2.13-4.78,4.34-7,3.94S34.62,18,34.62,18Z"/><path class="cls-11" d="M38.47,20.18a12.69,12.69,0,0,0,2.58-.25c-1.64,1.49-4,2.63-5.66,2.34C34,22,34,20.54,34.24,19.39A10.15,10.15,0,0,0,38.47,20.18Z"/><path class="cls-12" d="M48.4,17.85a7.7,7.7,0,0,1,4,1.14,8.1,8.1,0,0,0-4.45.25,6.21,6.21,0,0,0-5.86,6.17,6.07,6.07,0,0,0,.67,2.78A7.91,7.91,0,0,0,44.6,32a7.54,7.54,0,0,1,3.8-14.13Z"/><path class="cls-8" d="M48.33,25.63l.26-.18-4.33-7.13c-.44-.51-1.41-.08-1,.64Z"/><path class="cls-4" d="M44.31,18.26l1.37,2.4a.57.57,0,0,0-.32.09.77.77,0,0,0-.25.67L43.19,19C42.81,18.28,43.87,17.75,44.31,18.26Z"/><polygon class="cls-13" points="20.05 16.2 26.72 29.49 39.47 29.54 40.87 31.2 26.06 30.6 19.79 16.34 20.05 16.2"/><path class="cls-14" d="M25.63,29.62,19.79,16.33l.26-.13,6.49,12.93C26.05,28.87,25.78,29.15,25.63,29.62Z"/><polygon class="cls-14" points="20.33 17.14 22.75 12.67 21.68 12.37 19.79 16.26 20.33 17.14"/><path class="cls-15" d="M21.5,12.09c.29-2-3.2-2.05-3.2-2.05l-.08,3.8S21.25,13.76,21.5,12.09Z"/><path class="cls-16" d="M18.87,12.16a2.65,2.65,0,0,0,1.52-1.69,1.52,1.52,0,0,1,1.11,1.62c-.25,1.67-3.28,1.75-3.28,1.75l0-1.44A4.38,4.38,0,0,0,18.87,12.16Z"/><polygon class="cls-13" points="18.22 9.8 18.7 9.8 18.48 14.05 17.99 14.05 18.22 9.8"/><path class="cls-12" d="M5,23.3a6.92,6.92,0,0,0,1.16,3,6.3,6.3,0,0,0,12,1.34A7.16,7.16,0,0,0,20,25.23v.18a7.67,7.67,0,0,1-15.33,0A7.74,7.74,0,0,1,5,23.3Z"/><path class="cls-17" d="M12.5,18.07a7.61,7.61,0,0,0-7.66,7.55,7.5,7.5,0,0,0,1,3.76,7.46,7.46,0,0,1-1.14-4,7.62,7.62,0,0,1,7.67-7.56A7.7,7.7,0,0,1,19,21.65,7.7,7.7,0,0,0,12.5,18.07Z"/><path class="cls-17" d="M18.77,25.62A6.29,6.29,0,0,1,7.05,28.67a6.29,6.29,0,0,0,11.6-3.26,6,6,0,0,0-.82-3A6,6,0,0,1,18.77,25.62Z"/><path class="cls-8" d="M24.27,7.15,12.66,25.49a.22.22,0,0,1-.28.07l-.1-.06a.29.29,0,0,1-.13-.18.29.29,0,0,1,0-.22L23.55,6.63Z"/><path class="cls-3" d="M21,10.83l.8-1.3a3.76,3.76,0,0,0,1.18-1,3.23,3.23,0,0,0,.85-1.76l.47.34L21,12.35Z"/><polygon class="cls-3" points="17.98 17.18 17.78 15.98 18.23 15.24 18.89 15.69 17.98 17.18"/><path class="cls-12" d="M41,23.3a6.92,6.92,0,0,0,1.16,3,6.3,6.3,0,0,0,12,1.34,7.16,7.16,0,0,0,1.83-2.44v.18a7.67,7.67,0,0,1-15.33,0A7.74,7.74,0,0,1,41,23.3Z"/><polygon class="cls-8" points="48.32 25.41 48.37 25.69 36.53 28.26 34.99 26.61 48.32 25.41"/><polygon class="cls-4" points="35.88 26.06 36.38 27.11 48.32 25.45 48.37 25.69 36.53 28.26 34.99 26.61 35.88 26.06"/><polygon class="cls-14" points="30.19 27.22 34.99 27.56 34.21 26.41 30.13 26.49 30.19 27.22"/><polygon class="cls-18" points="31.66 22.35 36.3 27.49 46.95 27.23 48.51 28.95 35.88 28.72 31.28 23.07 31.66 22.35"/><polygon class="cls-13" points="31.56 22.54 36.05 28.06 48.62 28.3 48.51 28.95 35.88 28.72 31.28 23.07 31.56 22.54"/><path class="cls-14" d="M34.86,27.56l-3.58-4.49.37-.72,3.84,4.24C35.12,26.51,34.68,26.83,34.86,27.56Z"/><polygon class="cls-14" points="27.07 24.52 27.55 26.37 26.59 26.77 26.53 24.71 27.07 24.52"/><polygon class="cls-14" points="29.72 24.71 29.1 26.51 28.07 26.32 29.17 24.57 29.72 24.71"/><polygon class="cls-19" points="32.78 21.33 30.51 25.39 28.13 24.52 28.26 19.84 32.78 21.33"/><polygon class="cls-20" points="31.1 24.43 30.82 24.82 28.19 24 28.06 23.57 31.1 24.43"/><polygon class="cls-20" points="31.54 23.62 31.26 24 28.63 23.19 28.5 22.76 31.54 23.62"/><polygon class="cls-20" points="32.01 22.7 31.73 23.09 29.1 22.28 28.97 21.85 32.01 22.7"/><path class="cls-20" d="M29.87,24.63c1.23,0,2.32-1.89,2.39-3.47l.52.17-2,4a.56.56,0,0,1-.65.28l-1.6-.48a.58.58,0,0,1-.42-.58l.06-1.87c.17.65,1-.58,1.33-.19S29.55,24.63,29.87,24.63Z"/><polygon class="cls-20" points="32.23 22.11 28.22 20.98 28.25 20.17 32.4 21.43 32.23 22.11"/><path class="cls-19" d="M23,20.89l2.32,4.29a.69.69,0,0,0,.79.33l1.08-.32a.81.81,0,0,0,.57-.79l-.14-4.57Z"/><polygon class="cls-20" points="24.64 23.63 24.89 24.03 27.6 23.41 27.76 23 24.64 23.63"/><polygon class="cls-20" points="24.07 22.8 24.33 23.25 27.02 22.56 27.35 22.02 24.07 22.8"/><polygon class="cls-20" points="23.72 22.14 23.94 22.55 26.63 21.87 26.78 21.45 23.72 22.14"/><path class="cls-20" d="M26.35,24.22c.31-.15-.34-1.57.06-2.13.61-.86,1.32-1.42,1-2.12a.43.43,0,0,1,0-.07l.31-.07.14,4.58a.8.8,0,0,1-.57.78l-1.08.32a.69.69,0,0,1-.79-.33L24.24,23.1C25.07,23.86,25.84,24.48,26.35,24.22Z"/><polygon class="cls-20" points="27.53 20.87 23.58 21.91 23.21 21.18 27.52 20.22 27.53 20.87"/><path class="cls-20" d="M29.58,22.86a1.65,1.65,0,1,1-1.64-1.66A1.65,1.65,0,0,1,29.58,22.86Z"/><polygon class="cls-20" points="30.13 22.36 28.94 21.28 28.89 21.43 30.06 22.43 30.13 22.36"/><polygon class="cls-15" points="30.17 22.27 28.98 21.2 28.93 21.35 30.1 22.34 30.17 22.27"/><polygon class="cls-20" points="30.24 22.65 29.07 24.03 28.99 23.82 30.17 22.54 30.24 22.65"/><polygon class="cls-21" points="30.19 22.68 28.83 23.88 28.78 23.66 30.13 22.56 30.19 22.68"/><path class="cls-15" d="M29.6,22.49a1.66,1.66,0,1,1-1.66-1.66A1.67,1.67,0,0,1,29.6,22.49Z"/><path class="cls-15" d="M30.28,22.49a.26.26,0,0,1-.26.26.26.26,0,0,1-.26-.26.25.25,0,0,1,.26-.26A.26.26,0,0,1,30.28,22.49Z"/><path class="cls-19" d="M25.88,26a.36.36,0,0,1-.71,0,.36.36,0,1,1,.71,0Z"/><path class="cls-15" d="M28.18,19.71a.31.31,0,0,1,.16-.25.35.35,0,0,1,.3,0l4.22,1.5a.37.37,0,0,1,.22.22.37.37,0,0,1,0,.31l-.15.27a.2.2,0,0,1-.24.1l-4.25-1.31a.41.41,0,0,1-.29-.44Z"/><path class="cls-22" d="M28.13,20.07l.05-.36a.31.31,0,0,1,.16-.25l.07,0h0c-.11.39.87,1.1,2.21,1.53a4.27,4.27,0,0,0,2.47.22.35.35,0,0,1,0,.28l-.15.27a.2.2,0,0,1-.24.1l-4.25-1.31A.41.41,0,0,1,28.13,20.07Z"/><path class="cls-15" d="M27.8,19.85a.46.46,0,0,0-.2-.35.44.44,0,0,0-.39-.06l-4.08,1.15a.3.3,0,0,0-.19.16.33.33,0,0,0,0,.24l.1.21a.39.39,0,0,0,.43.21l4.15-1a.27.27,0,0,0,.2-.26Z"/><path class="cls-22" d="M22.94,20.75a.36.36,0,0,1,.11-.13,3.12,3.12,0,0,0,2.31.22c1.2-.25,2-.93,1.95-1.28a.26.26,0,0,0-.08-.13.51.51,0,0,1,.38.07.48.48,0,0,1,.19.35l0,.32a.27.27,0,0,1-.2.26l-4.15,1A.39.39,0,0,1,23,21.2l-.1-.21A.33.33,0,0,1,22.94,20.75Z"/><path class="cls-23" d="M26.2,18.69a.34.34,0,0,1,0,.67l-3,.75s-.37-1.39.6-1.49A19.3,19.3,0,0,1,26.2,18.69Z"/><path class="cls-23" d="M32.84,19.58c.38,0,.27,1.1-.43.86-.42-.15-2.56-.84-3.37-1.16a.12.12,0,0,1-.08-.15A.13.13,0,0,1,29.1,19Z"/><path class="cls-21" d="M27.94,23a1.65,1.65,0,0,0,1.54-1.06,1.5,1.5,0,0,1,.12.6,1.66,1.66,0,1,1-3.21-.6A1.66,1.66,0,0,0,27.94,23Z"/><polygon class="cls-20" points="29.71 26.19 30.35 25.84 30.35 27.93 29.79 27.57 29.71 26.19"/><polygon class="cls-19" points="26.13 26.09 30.02 26.09 29.94 27.57 26.13 26.9 26.13 26.09"/><path class="cls-20" d="M28.1,26.79A5.1,5.1,0,0,0,30,26.44v1.23H27.19l-1.06-.6v-.66A5,5,0,0,0,28.1,26.79Z"/><path class="cls-15" d="M29.35,26.88a1.42,1.42,0,1,1-1.41-1.42A1.41,1.41,0,0,1,29.35,26.88Z"/><path class="cls-24" d="M34.3,19.44c-.18,1.11-.13,2.45,1.15,2.68,1.59.28,3.75-.75,5.34-2.11l.3-.05c-1.64,1.5-4,2.67-5.7,2.37-1.38-.24-1.36-1.75-1.14-2.9Z"/><path class="cls-15" d="M26.43,22.49A1.51,1.51,0,1,0,27.94,21,1.5,1.5,0,0,0,26.43,22.49Zm.08,0a1.43,1.43,0,1,1,2.85,0,1.43,1.43,0,0,1-2.85,0Z"/><path class="cls-15" d="M29,22.49a1,1,0,1,1-1-1A1,1,0,0,1,29,22.49Z"/><path class="cls-25" d="M29,21.56c0,.39-.46.31-1.08.39s-1.12.26-1.17-.13.33-.81,1-.89S29,21.17,29,21.56Z"/><path class="cls-21" d="M28.62,22.49a.68.68,0,1,1-1.36,0,.68.68,0,0,1,1.36,0Z"/><path class="cls-15" d="M28.29,22.37a.46.46,0,1,1-.46-.46A.47.47,0,0,1,28.29,22.37Z"/><path class="cls-26" d="M33.84,18.36c-.6,1.45-3.09.11-6.11-.11-2.08-.15-3.94,0-4.62-.55-1.67-1.44-1.35-5.88.44-6.86S34.79,16.06,33.84,18.36Z"/><path class="cls-27" d="M24,16.11c3.28-.23,9.11,2.45,9.74,1.31a1.25,1.25,0,0,1,.06.94c-.6,1.45-3,.26-6,0-2.09-.15-4.08.14-4.76-.45a4.68,4.68,0,0,1-1-3.73A2.14,2.14,0,0,0,24,16.11Z"/><path class="cls-28" d="M33.68,18.28c-.2.36-.67,1-2.9.33A4.6,4.6,0,0,0,33.68,18.28Z"/><path class="cls-28" d="M22.38,16.46c.41,1,.66,1.81,2.91,1.63A3.84,3.84,0,0,1,22.38,16.46Z"/><path class="cls-2" d="M49.26,25.41a.87.87,0,1,1-.86-.87A.86.86,0,0,1,49.26,25.41Z"/><path class="cls-8" d="M48.81,25.41A.42.42,0,1,1,48.4,25,.41.41,0,0,1,48.81,25.41Z"/><path class="cls-14" d="M21,17.13a.27.27,0,1,1,.27.27A.27.27,0,0,1,21,17.13Z"/><path class="cls-14" d="M19.61,16.35a.27.27,0,1,1,.27.27A.27.27,0,0,1,19.61,16.35Z"/><polygon class="cls-29" points="18.1 17.36 17.11 16.53 13.37 22.95 14.05 23.58 18.1 17.36"/><path class="cls-3" d="M15.88,20a9.34,9.34,0,0,0,1.33-3.37l.89.74-4.05,6.22L13.37,23v0A8.59,8.59,0,0,0,15.88,20Z"/><polygon class="cls-29" points="19.13 15.96 17.93 15.08 21.47 9.54 22.81 10.29 19.13 15.96"/><path class="cls-3" d="M20.61,12.7A14,14,0,0,0,22,9.86l.77.43L19.13,16l-.75-.55A12.85,12.85,0,0,0,20.61,12.7Z"/><path class="cls-13" d="M18.08,17.68l-1.32-1,.23-.38,1.26,1Z"/><path class="cls-13" d="M14.19,23.72l-1.1-.8.19-.32,1.05.84Z"/><path class="cls-13" d="M19.18,16.28l-1.44-1.05.25-.42,1.38,1.1Z"/><path class="cls-13" d="M22.77,10.61l-1.56-1,.25-.42,1.53.88Z"/><path class="cls-18" d="M39.47,29.54l0,.31a38.71,38.71,0,0,1-5.67.18c-3.93-.09-7.18-.12-7.19-.65,0,0,0,0,0-.05l.08.16Z"/><path class="cls-30" d="M40.9,31.2a1.73,1.73,0,0,1-2-1.66S40.9,29.29,40.9,31.2Z"/><path class="cls-30" d="M49.2,29a2,2,0,0,1-2.31-1.82S49.2,26.93,49.2,29Z"/><path class="cls-4" d="M43.82,18a3.71,3.71,0,0,0-.8-2.14l-.47.29L42.34,19l.68.22,2.91-1.15Z"/><path class="cls-31" d="M45.86,18.12l-.6-.06c.44-.15,1-.3,1.54-.44,3.13-.7,4.56-.76,5.68-.52a.32.32,0,0,1,.16.36C50.46,16.93,46,18.07,45.86,18.12Z"/><path class="cls-32" d="M42.81,15.89c.51.18.7,2.24-.2,3.17-.48.49-7.77,1.15-8.43-1.64-.2-.84,2.53-.44,4.33-.51C40,16.84,41.3,15.38,42.81,15.89Z"/><path class="cls-33" d="M38.52,16.82c1.5-.06,2.78-1.44,4.29-.93a.55.55,0,0,1,.26.31c-.48.8-2.47,1.39-4.85,1.39A10.55,10.55,0,0,1,34.51,17,24.52,24.52,0,0,1,38.52,16.82Z"/><path class="cls-34" d="M42.3,18.22a2.84,2.84,0,0,0,.54-2.31c.49.26.74,2.29-.14,3.19-.4.42-6.15,1-8.23-.5-.4-.29-.18-.73-.29-1.18a.28.28,0,0,1,0-.13C35.87,19.2,41.87,18.66,42.3,18.22Z"/><path class="cls-20" d="M27,21.65a.09.09,0,0,1,.13.13.09.09,0,0,1-.13-.13Z"/><path class="cls-20" d="M29.25,22.49a.09.09,0,1,1-.09-.09A.09.09,0,0,1,29.25,22.49Z"/><path class="cls-20" d="M26.81,22.49a.09.09,0,0,1-.09.09.09.09,0,1,1,0-.18A.09.09,0,0,1,26.81,22.49Z"/><path class="cls-20" d="M27.94,21.17a.1.1,0,0,1,.09.1.09.09,0,0,1-.18,0A.1.1,0,0,1,27.94,21.17Z"/><path class="cls-20" d="M27.94,23.62a.09.09,0,1,1-.09.09A.09.09,0,0,1,27.94,23.62Z"/><path class="cls-20" d="M28.74,23.29a.09.09,0,0,1,.13,0,.09.09,0,0,1-.13.13A.09.09,0,0,1,28.74,23.29Z"/><path class="cls-20" d="M27,23.42a.09.09,0,0,1,.13-.13.09.09,0,1,1-.13.13Z"/><path class="cls-20" d="M28.74,21.69a.09.09,0,0,1,.13-.13.09.09,0,0,1-.13.13Z"/><path class="cls-32" d="M42.39,18.91a.12.12,0,0,1,.11-.13.14.14,0,0,1,.13.13.12.12,0,0,1-.11.13A.13.13,0,0,1,42.39,18.91Z"/><path class="cls-32" d="M41.77,19.08a.11.11,0,0,1,.11-.14.13.13,0,0,1,.12.14.11.11,0,0,1-.11.13A.13.13,0,0,1,41.77,19.08Z"/><path class="cls-32" d="M41,19.21a.11.11,0,0,1,.11-.14.13.13,0,0,1,.12.14.11.11,0,0,1-.11.13A.13.13,0,0,1,41,19.21Z"/><path class="cls-32" d="M40.11,19.26a.12.12,0,0,1,.11-.13.14.14,0,0,1,.13.13.12.12,0,0,1-.11.13A.13.13,0,0,1,40.11,19.26Z"/><path class="cls-32" d="M39.17,19.32a.11.11,0,0,1,.11-.13.13.13,0,0,1,.12.13.11.11,0,0,1-.11.14A.13.13,0,0,1,39.17,19.32Z"/><path class="cls-32" d="M38.32,19.29a.12.12,0,0,1,.11-.13.14.14,0,0,1,.13.13.12.12,0,0,1-.11.13A.14.14,0,0,1,38.32,19.29Z"/><path class="cls-32" d="M37.48,19.24a.11.11,0,0,1,.11-.14.13.13,0,0,1,.12.14.11.11,0,0,1-.11.13A.13.13,0,0,1,37.48,19.24Z"/><path class="cls-32" d="M36.59,19.1A.13.13,0,0,1,36.7,19a.14.14,0,0,1,.13.14.12.12,0,0,1-.11.13A.13.13,0,0,1,36.59,19.1Z"/><path class="cls-32" d="M35.77,18.88a.11.11,0,0,1,.11-.13.13.13,0,0,1,.12.13.11.11,0,0,1-.11.14A.13.13,0,0,1,35.77,18.88Z"/><path class="cls-32" d="M35.05,18.62a.13.13,0,0,1,.11-.14.15.15,0,0,1,.13.14.12.12,0,0,1-.11.13A.13.13,0,0,1,35.05,18.62Z"/><path class="cls-32" d="M34.52,18.34c0-.07,0-.13.08-.13s.1.06.11.13,0,.13-.09.13S34.52,18.41,34.52,18.34Z"/><path class="cls-32" d="M34.27,18.05c0-.07,0-.13,0-.13s0,.06,0,.13,0,.13,0,.13S34.27,18.12,34.27,18.05Z"/><path class="cls-32" d="M42.71,18.39a.07.07,0,0,1,.12,0,.17.17,0,0,1,0,.18.08.08,0,0,1-.13,0A.17.17,0,0,1,42.71,18.39Z"/><path class="cls-32" d="M42.92,18a.1.1,0,0,1,.09-.11s.08.05.08.11,0,.12-.08.12S42.92,18,42.92,18Z"/><path class="cls-32" d="M43.05,17.42c0-.06,0-.11.06-.11s0,.05,0,.11,0,.11,0,.11S43.05,17.48,43.05,17.42Z"/><path class="cls-32" d="M43.09,16.83c0-.06,0-.11,0-.11s0,0,.06.1,0,.11,0,.12S43.1,16.9,43.09,16.83Z"/><path class="cls-13" d="M33.38,26.58l.4.35s-2.26,0-2.44-.26C31.3,26.61,33.38,26.58,33.38,26.58Z"/><rect class="cls-25" x="30.26" y="25.69" width="0.2" height="2.35"/><polygon class="cls-15" points="26 26 26.23 26 26.33 27.28 26 27.19 26 26"/><path class="cls-21" d="M27.94,27.07a1.42,1.42,0,0,0,1.27-.8,1.37,1.37,0,0,1,.14.61,1.42,1.42,0,0,1-2.83,0,1.37,1.37,0,0,1,.14-.61A1.42,1.42,0,0,0,27.94,27.07Z"/><path class="cls-21" d="M28.64,26.92a.72.72,0,1,1-1.43,0,.72.72,0,1,1,1.43,0Z"/><path class="cls-15" d="M28.41,26.92a.49.49,0,0,1-1,0,.49.49,0,0,1,1,0Z"/><path class="cls-15" d="M23.32,6.85A.65.65,0,0,1,24,6.23a.62.62,0,1,1,0,1.24A.65.65,0,0,1,23.32,6.85Z"/><path class="cls-13" d="M23.68,6.78a.64.64,0,0,0,.63-.46.6.6,0,0,1,.32.53.64.64,0,0,1-.65.62.65.65,0,0,1-.66-.62.4.4,0,0,1,0-.15A.7.7,0,0,0,23.68,6.78Z"/><polygon class="cls-13" points="24.29 6.63 25.83 7.9 25.27 8.43 23.84 6.91 24.29 6.63"/><path class="cls-8" d="M24.81,7.72a.54.54,0,0,1,.63-.39.53.53,0,0,1,.23.7.47.47,0,1,1-.86-.31Z"/><polygon class="cls-8" points="25.55 7.47 27.03 8.3 26.27 9.53 24.97 8.37 25.55 7.47"/><path class="cls-35" d="M23.64,13.11c-.48-.35-.69-2,.31-2.14s4.05,1.31,3.88,1.77S24.49,13.74,23.64,13.11Z"/><path class="cls-35" d="M28.25,12.82c.43.41,1.42,1,2.4,1.9,1.28,1.2,2.54,2.69,2.62,2.31a12.38,12.38,0,0,0-2.73-2.76A9.7,9.7,0,0,0,28.25,12.82Z"/><path class="cls-35" d="M27.52,13.23c0-.06.12-.11.27-.12s.28,0,.28.1-.12.11-.27.11S27.52,13.29,27.52,13.23Z"/><path class="cls-3" d="M26.23,8.64a.65.65,0,0,1,.82-.34.66.66,0,0,1,.05.9c-.22.33-.59.48-.83.33A.64.64,0,0,1,26.23,8.64Z"/><path class="cls-36" d="M29,28.9l-1.82-.08A7.58,7.58,0,0,1,28.64,28,4,4,0,0,1,29,28.9Z"/></g></g></svg>