<svg xmlns="http://www.w3.org/2000/svg" xmlns:xlink="http://www.w3.org/1999/xlink" viewBox="0 0 60.77 39.2"><defs><style>.cls-1{fill:#fff;stroke:#000;stroke-miterlimit:10;stroke-width:0.15px;}.cls-2{fill:url(#radial-gradient);}.cls-3{fill:#faf398;}.cls-4{fill:#404040;}.cls-5{fill:url(#linear-gradient);}.cls-6{fill:#010101;}.cls-7{fill:url(#radial-gradient-2);}.cls-8{fill:url(#linear-gradient-2);}.cls-9{fill:url(#linear-gradient-3);}.cls-10{fill:url(#linear-gradient-4);}.cls-11{fill:url(#linear-gradient-5);}.cls-12{fill:url(#linear-gradient-6);}.cls-13{fill:url(#radial-gradient-3);}.cls-14{fill:url(#linear-gradient-7);}.cls-15{fill:url(#linear-gradient-8);}.cls-16{fill:url(#linear-gradient-9);}.cls-17{fill:url(#linear-gradient-10);}.cls-18{fill:url(#linear-gradient-11);}</style><radialGradient id="radial-gradient" cx="29.42" cy="16.1" r="15.97" gradientUnits="userSpaceOnUse"><stop offset="0" stop-color="#febf10"/><stop offset="0.43" stop-color="#febd11"/><stop offset="0.65" stop-color="#fcb514"/><stop offset="0.84" stop-color="#faa719"/><stop offset="0.86" stop-color="#faa51a"/><stop offset="0.98" stop-color="#f9a11b"/></radialGradient><linearGradient id="linear-gradient" x1="31.2" y1="11.91" x2="40.79" y2="11.91" gradientUnits="userSpaceOnUse"><stop offset="0" stop-color="#fff"/><stop offset="0.09" stop-color="#fbfbfc"/><stop offset="0.63" stop-color="#e8e7ea"/><stop offset="1" stop-color="#e1e0e3"/></linearGradient><radialGradient id="radial-gradient-2" cx="-1541.81" cy="27.13" r="8.24" gradientTransform="matrix(-1, 0, 0, 1, -1499.74, 0)" gradientUnits="userSpaceOnUse"><stop offset="0"/><stop offset="0.41" stop-color="#020202"/><stop offset="0.56" stop-color="#090909"/><stop offset="0.66" stop-color="#141414"/><stop offset="0.75" stop-color="#252525"/><stop offset="0.82" stop-color="#3b3b3b"/><stop offset="0.83" stop-color="#404040"/><stop offset="1" stop-color="#858585"/></radialGradient><linearGradient id="linear-gradient-2" x1="-1541.81" y1="30.42" x2="-1541.81" y2="22.4" gradientTransform="matrix(-1, 0, 0, 1, -1499.74, 0)" gradientUnits="userSpaceOnUse"><stop offset="0" stop-color="#bfbfbf"/><stop offset="0.06" stop-color="#aaa"/><stop offset="0.17" stop-color="#8a8a8a"/><stop offset="0.29" stop-color="#6f6f6f"/><stop offset="0.42" stop-color="#5a5a5a"/><stop offset="0.56" stop-color="#4b4b4b"/><stop offset="0.73" stop-color="#434343"/><stop offset="1" stop-color="#404040"/></linearGradient><linearGradient id="linear-gradient-3" x1="-1545.43" y1="27.13" x2="-1538.19" y2="27.13" gradientTransform="matrix(-1, 0, 0, 1, -1499.74, 0)" gradientUnits="userSpaceOnUse"><stop offset="0" stop-color="#fff"/><stop offset="0.07" stop-color="#ededf0"/><stop offset="0.17" stop-color="#d9d9e0"/><stop offset="0.24" stop-color="#d2d2da"/><stop offset="0.54" stop-color="#e1e1e6"/><stop offset="1" stop-color="#f5f5f5"/></linearGradient><linearGradient id="linear-gradient-4" x1="407.02" y1="28.26" x2="407.02" y2="26" gradientTransform="translate(-364.95)" gradientUnits="userSpaceOnUse"><stop offset="0" stop-color="#404040"/><stop offset="0.15" stop-color="#353535"/><stop offset="0.7" stop-color="#121212"/><stop offset="1" stop-color="#050505"/></linearGradient><linearGradient id="linear-gradient-5" x1="407.09" y1="26" x2="407.09" y2="27.43" gradientTransform="translate(-364.95)" gradientUnits="userSpaceOnUse"><stop offset="0" stop-color="#fff"/><stop offset="0.1" stop-color="#e4e4e4"/><stop offset="0.33" stop-color="#aaa"/><stop offset="0.55" stop-color="#7c7c7c"/><stop offset="0.74" stop-color="#5b5b5b"/><stop offset="0.89" stop-color="#474747"/><stop offset="1" stop-color="#404040"/></linearGradient><linearGradient id="linear-gradient-6" x1="-1541.8" y1="26.34" x2="-1541.44" y2="18.99" gradientTransform="matrix(-1, 0, 0, 1, -1499.74, 0)" gradientUnits="userSpaceOnUse"><stop offset="0" stop-color="#5f5d5d"/><stop offset="0.4" stop-color="#615f5f"/><stop offset="0.62" stop-color="#696767"/><stop offset="0.79" stop-color="#767475"/><stop offset="0.94" stop-color="#898788"/><stop offset="1" stop-color="#929092"/></linearGradient><radialGradient id="radial-gradient-3" cx="-1526.08" cy="27.36" r="7.05" xlink:href="#radial-gradient-2"/><linearGradient id="linear-gradient-7" x1="-1526.08" y1="30.18" x2="-1526.08" y2="23.31" xlink:href="#linear-gradient-2"/><linearGradient id="linear-gradient-8" x1="-1529.18" y1="27.36" x2="-1522.98" y2="27.36" xlink:href="#linear-gradient-3"/><linearGradient id="linear-gradient-9" x1="391.29" y1="28.33" x2="391.29" y2="26.4" xlink:href="#linear-gradient-4"/><linearGradient id="linear-gradient-10" x1="391.35" y1="26.4" x2="391.35" y2="27.61" xlink:href="#linear-gradient-5"/><linearGradient id="linear-gradient-11" x1="-1526.07" y1="26.68" x2="-1525.77" y2="20.39" xlink:href="#linear-gradient-6"/></defs><title>bulldozer</title><g id="Layer_2" data-name="Layer 2"><g id="Layer_1-2" data-name="Layer 1"><rect class="cls-1" x="0.08" y="0.08" width="60.62" height="39.04" rx="12.38" ry="12.38"/><path class="cls-2" d="M10.71,10.58l.88-.43a.39.39,0,0,1,.14-.05l2.43-.27.71-5.62A.44.44,0,0,1,15.62,4l4.32,4.38a.39.39,0,0,1,.12.38l-.11.6,2.92.83,4,8.7h.47v-.07a3.15,3.15,0,0,0,0-.44h.53L31.46,7.85a.88.88,0,0,1,.85-.65h9.35a.88.88,0,0,1,.88.87v8.82a4.53,4.53,0,0,1,.91-.09,4.92,4.92,0,0,1,4.93,4.91V23.4a6.86,6.86,0,0,0-12.77,3.44,6.41,6.41,0,0,0,.18,1.53H31.55a6.5,6.5,0,0,0,.1-1.09,6,6,0,0,0-4.31-5.74V21H25.47L21.3,12l-1.76-.5-.22,1.16a.4.4,0,0,1-.19.28.43.43,0,0,1-.24.08H18.8l-8-1.58a.43.43,0,0,1-.35-.38A.42.42,0,0,1,10.71,10.58Z"/><path class="cls-3" d="M30.4,16.34a.25.25,0,0,0,.25.25h3.73a.25.25,0,0,0,.24-.25h0a.24.24,0,0,0-.24-.24H30.65a.25.25,0,0,0-.25.24Z"/><path class="cls-4" d="M30.36,16.4a.25.25,0,0,0,.25.25h3.73a.25.25,0,0,0,.24-.25h0a.24.24,0,0,0-.24-.24H30.61a.25.25,0,0,0-.25.24Z"/><path class="cls-3" d="M30.4,17.17a.25.25,0,0,0,.25.25h3.73a.25.25,0,0,0,.24-.25h0a.24.24,0,0,0-.24-.24H30.65a.25.25,0,0,0-.25.24Z"/><path class="cls-4" d="M30.36,17.23a.25.25,0,0,0,.25.25h3.73a.25.25,0,0,0,.24-.25h0a.24.24,0,0,0-.24-.24H30.61a.25.25,0,0,0-.25.24Z"/><path class="cls-3" d="M30.4,18a.25.25,0,0,0,.25.25h3.73a.25.25,0,0,0,.24-.25h0a.24.24,0,0,0-.24-.24H30.65a.25.25,0,0,0-.25.24Z"/><path class="cls-4" d="M30.36,18.06a.25.25,0,0,0,.25.25h3.73a.25.25,0,0,0,.24-.25h0a.24.24,0,0,0-.24-.24H30.61a.25.25,0,0,0-.25.24Z"/><path class="cls-3" d="M30.4,18.83a.25.25,0,0,0,.25.25h3.73a.25.25,0,0,0,.24-.25h0a.24.24,0,0,0-.24-.24H30.65a.25.25,0,0,0-.25.24Z"/><path class="cls-4" d="M30.36,18.89a.25.25,0,0,0,.25.25h3.73a.25.25,0,0,0,.24-.25h0a.24.24,0,0,0-.24-.24H30.61a.25.25,0,0,0-.25.24Z"/><path class="cls-5" d="M40.27,14.88a2.9,2.9,0,0,1,.52-.29V8.94H34L31.2,14.88Z"/><polyline class="cls-6" points="15.16 3.85 15.19 3.97 16.67 10.76 10.82 11.39 10.47 11.02 13.83 9.18"/><path class="cls-7" d="M34.17,25.18h0l.28.13a7.84,7.84,0,0,1,.61-1.66l-.1-.14a.35.35,0,0,1-.07-.46l.81-1.4a.34.34,0,0,1,.47-.15h0l.18.25a7.83,7.83,0,0,1,1.36-1.14l0-.16a.36.36,0,0,1,.17-.44l1.4-.81a.36.36,0,0,1,.49.11v0l0,.3a7.82,7.82,0,0,1,1.75-.3l.07-.16A.35.35,0,0,1,42,18.9h1.62a.36.36,0,0,1,.37.34v0l-.13.28a7.9,7.9,0,0,1,1.67.6l.13-.09a.36.36,0,0,1,.47-.08l1.4.81a.41.41,0,0,1,.18.23.35.35,0,0,1,0,.25l0,0-.25.18a7.76,7.76,0,0,1,1.14,1.35h.16a.31.31,0,0,1,.21,0,.38.38,0,0,1,.23.18L50,24.39a.35.35,0,0,1-.11.49h0l-.31,0a7.74,7.74,0,0,1,.31,1.74l.15.07a.37.37,0,0,1,.3.37v1.62a.39.39,0,0,1-.11.27.35.35,0,0,1-.23.09h0L49.66,29a7.84,7.84,0,0,1-.61,1.66l.11.15a.44.44,0,0,1,.1.16.28.28,0,0,1,0,.09.35.35,0,0,1-.05.2l-.81,1.4a.35.35,0,0,1-.23.18.28.28,0,0,1-.25,0h0l-.17-.25a8.74,8.74,0,0,1-1.36,1.14l0,.16a.37.37,0,0,1,0,.21.41.41,0,0,1-.18.23l-1.4.81a.38.38,0,0,1-.29,0,.31.31,0,0,1-.2-.15l0,0,0-.3a7.73,7.73,0,0,1-1.74.3l-.07.15a.36.36,0,0,1-.36.3H40.49a.35.35,0,0,1-.37-.34v0l.12-.28a7.33,7.33,0,0,1-1.66-.61l-.15.11a.31.31,0,0,1-.16.11.42.42,0,0,1-.29,0l-1.4-.81a.41.41,0,0,1-.18-.23.35.35,0,0,1,0-.25l0,0,.25-.18a7.83,7.83,0,0,1-1.14-1.36l-.17,0a.36.36,0,0,1-.21,0,.47.47,0,0,1-.23-.19l-.81-1.4a.42.42,0,0,1,0-.29.43.43,0,0,1,.15-.2h0l.31,0a7.73,7.73,0,0,1-.31-1.75l-.15-.07a.35.35,0,0,1-.3-.36V25.55A.36.36,0,0,1,34.17,25.18Z"/><path class="cls-8" d="M38,27.13A4.11,4.11,0,1,0,42.07,23,4.11,4.11,0,0,0,38,27.13Z"/><path class="cls-9" d="M38.45,27.13a3.62,3.62,0,1,0,3.62-3.62A3.63,3.63,0,0,0,38.45,27.13Z"/><path class="cls-10" d="M43.2,27.13A1.13,1.13,0,1,1,42.07,26,1.13,1.13,0,0,1,43.2,27.13Z"/><path class="cls-11" d="M42.07,26a1.13,1.13,0,0,0-1,.57,2.43,2.43,0,0,0,2.07.84,1.26,1.26,0,0,0,0-.28A1.14,1.14,0,0,0,42.07,26Z"/><path class="cls-12" d="M42.07,20a7.09,7.09,0,0,1,7.18,6.79v-.2a7.18,7.18,0,0,0-14.36,0v.2A7.09,7.09,0,0,1,42.07,20Z"/><path class="cls-13" d="M19.58,25.7h0l.24.1a6.35,6.35,0,0,1,.52-1.42l-.09-.12a.3.3,0,0,1-.06-.39l.69-1.2a.31.31,0,0,1,.41-.13h0l.15.22a6.77,6.77,0,0,1,1.16-1v-.14a.3.3,0,0,1,.14-.38l1.2-.69a.31.31,0,0,1,.42.09v0l0,.26a6.54,6.54,0,0,1,1.49-.26l.06-.13a.3.3,0,0,1,.31-.26H27.7a.3.3,0,0,1,.31.29v0l-.11.24a6.43,6.43,0,0,1,1.43.52l.11-.08a.31.31,0,0,1,.4-.07l1.2.7a.29.29,0,0,1,.15.19.3.3,0,0,1,0,.21l0,0-.21.15a7.25,7.25,0,0,1,1,1.16h.14a.27.27,0,0,1,.18,0,.32.32,0,0,1,.19.15l.7,1.2a.31.31,0,0,1-.1.42h0l-.26,0A6.74,6.74,0,0,1,33,27l.13.06a.31.31,0,0,1,.25.31v1.39a.32.32,0,0,1-.09.23.24.24,0,0,1-.2.08h0l-.23-.1a6.88,6.88,0,0,1-.52,1.42l.09.13a.28.28,0,0,1,.09.14.19.19,0,0,1,0,.08.33.33,0,0,1,0,.16l-.69,1.2a.29.29,0,0,1-.2.16.26.26,0,0,1-.21,0h0L31.19,32a6.47,6.47,0,0,1-1.17,1l0,.14a.28.28,0,0,1,0,.18.35.35,0,0,1-.16.2l-1.2.69a.29.29,0,0,1-.24,0,.23.23,0,0,1-.17-.13l0,0,0-.26a6.73,6.73,0,0,1-1.5.26l-.06.13a.3.3,0,0,1-.31.26H25a.3.3,0,0,1-.32-.29v0l.11-.24a6.17,6.17,0,0,1-1.42-.52l-.13.09a.26.26,0,0,1-.14.09.37.37,0,0,1-.25,0l-1.2-.69a.37.37,0,0,1-.15-.2.25.25,0,0,1,0-.21v0l.21-.15a7.19,7.19,0,0,1-1-1.16h-.14a.28.28,0,0,1-.18,0,.34.34,0,0,1-.2-.15l-.69-1.2a.32.32,0,0,1,0-.25.31.31,0,0,1,.13-.17h0l.26,0a6.22,6.22,0,0,1-.27-1.49l-.13-.06a.31.31,0,0,1-.25-.31V26A.3.3,0,0,1,19.58,25.7Z"/><path class="cls-14" d="M22.83,27.36a3.52,3.52,0,1,0,3.51-3.51A3.51,3.51,0,0,0,22.83,27.36Z"/><path class="cls-15" d="M23.24,27.36a3.1,3.1,0,1,0,3.1-3.1A3.1,3.1,0,0,0,23.24,27.36Z"/><path class="cls-16" d="M27.31,27.36a1,1,0,1,1-1-1A1,1,0,0,1,27.31,27.36Z"/><path class="cls-17" d="M26.34,26.4a.94.94,0,0,0-.83.48,2.06,2.06,0,0,0,1.77.72.93.93,0,0,0,0-.24A1,1,0,0,0,26.34,26.4Z"/><path class="cls-18" d="M26.34,21.21A6.08,6.08,0,0,1,32.49,27v-.17a6.15,6.15,0,0,0-12.3,0c0,.06,0,.11,0,.17A6.07,6.07,0,0,1,26.34,21.21Z"/></g></g></svg>