<svg xmlns="http://www.w3.org/2000/svg" xmlns:xlink="http://www.w3.org/1999/xlink" viewBox="0 0 60.77 39.2"><defs><style>.cls-1{fill:#fff;stroke:#000;stroke-miterlimit:10;stroke-width:0.15px;}.cls-2{fill:url(#radial-gradient);}.cls-3{fill:url(#linear-gradient);}.cls-4{fill:url(#linear-gradient-2);}.cls-5{fill:url(#linear-gradient-3);}.cls-6{fill:url(#linear-gradient-4);}.cls-7{fill:url(#linear-gradient-5);}.cls-8{fill:url(#linear-gradient-6);}.cls-9{fill:url(#linear-gradient-7);}.cls-10{fill:url(#linear-gradient-8);}.cls-11{fill:url(#linear-gradient-9);}.cls-12{fill:#7b7978;}</style><radialGradient id="radial-gradient" cx="-349.46" cy="18.24" r="18.68" gradientTransform="matrix(-1.01, 0, 0, 1, -323.58, 0)" gradientUnits="userSpaceOnUse"><stop offset="0" stop-color="#febf10"/><stop offset="0.43" stop-color="#febd11"/><stop offset="0.65" stop-color="#fcb514"/><stop offset="0.84" stop-color="#faa719"/><stop offset="0.86" stop-color="#faa51a"/><stop offset="0.98" stop-color="#f9a11b"/></radialGradient><linearGradient id="linear-gradient" x1="-327.84" y1="22.86" x2="-325.41" y2="22.86" gradientTransform="matrix(-1.01, 0, 0, 1, -323.58, 0)" gradientUnits="userSpaceOnUse"><stop offset="0.01" stop-color="#8c8c8c"/><stop offset="0.06" stop-color="#707070"/><stop offset="0.14" stop-color="#4f4f4f"/><stop offset="0.23" stop-color="#343434"/><stop offset="0.33" stop-color="#1f1f1f"/><stop offset="0.43" stop-color="#101010"/><stop offset="0.56" stop-color="#080808"/><stop offset="0.75" stop-color="#050505"/></linearGradient><linearGradient id="linear-gradient-2" x1="-366.08" y1="27.59" x2="-358.17" y2="27.59" xlink:href="#linear-gradient"/><linearGradient id="linear-gradient-3" x1="-340.76" y1="27.59" x2="-332.84" y2="27.59" xlink:href="#linear-gradient"/><linearGradient id="linear-gradient-4" x1="-371.72" y1="13.24" x2="-363.33" y2="13.24" gradientTransform="matrix(-1.01, 0, 0, 1, -323.58, 0)" gradientUnits="userSpaceOnUse"><stop offset="0" stop-color="#fff"/><stop offset="0.07" stop-color="#ededf0"/><stop offset="0.17" stop-color="#d9d9e0"/><stop offset="0.24" stop-color="#d2d2da"/><stop offset="0.54" stop-color="#e1e1e6"/><stop offset="1" stop-color="#f5f5f5"/></linearGradient><linearGradient id="linear-gradient-5" x1="-341.59" y1="13.24" x2="-333.73" y2="13.24" xlink:href="#linear-gradient-4"/><linearGradient id="linear-gradient-6" x1="-362.04" y1="13.24" x2="-353.66" y2="13.24" xlink:href="#linear-gradient-4"/><linearGradient id="linear-gradient-7" x1="-352.37" y1="13.24" x2="-343.98" y2="13.24" xlink:href="#linear-gradient-4"/><linearGradient id="linear-gradient-8" x1="-364.1" y1="27.58" x2="-360.15" y2="27.58" xlink:href="#linear-gradient-4"/><linearGradient id="linear-gradient-9" x1="-338.77" y1="27.58" x2="-334.81" y2="27.58" xlink:href="#linear-gradient-4"/></defs><title>bus</title><g id="Layer_2" data-name="Layer 2"><g id="Layer_1-2" data-name="Layer 1"><rect class="cls-1" x="0.08" y="0.08" width="60.62" height="39.04" rx="12.38" ry="12.38"/><path class="cls-2" d="M5.87,23.33C5.87,21.94,8,17.42,12,17l3.59-7a4.57,4.57,0,0,1,3.72-2.26h33a2.58,2.58,0,0,1,2.57,2.54V28.82H48a5.09,5.09,0,0,0,.18-1.24,5,5,0,0,0-9.95,0,5.09,5.09,0,0,0,.18,1.24H22.35a5.09,5.09,0,0,0,.18-1.24,5,5,0,0,0-9.94,0,4.65,4.65,0,0,0,.18,1.24H5.87Z"/><polygon class="cls-3" points="6.02 23.63 8.49 23.63 8.49 22.08 6.02 22.08 6.02 23.63 6.02 23.63"/><path class="cls-4" d="M39.21,27.59a4,4,0,1,1,4,3.95A4,4,0,0,1,39.21,27.59Z"/><path class="cls-5" d="M13.55,27.59a4,4,0,1,1,4,3.95A4,4,0,0,1,13.55,27.59Z"/><rect class="cls-6" x="44.44" y="9.53" width="8.5" height="7.43"/><path class="cls-7" d="M19.88,9.53h2.53V17H14.46l3.05-6A2.92,2.92,0,0,1,19.88,9.53Z"/><rect class="cls-8" x="34.64" y="9.53" width="8.5" height="7.43"/><rect class="cls-9" x="24.84" y="9.53" width="8.5" height="7.43"/><path class="cls-10" d="M41.21,27.58a2,2,0,0,0,4,0,2,2,0,0,0-4,0Z"/><path class="cls-11" d="M17.55,25.6a2,2,0,1,1-2,2A2,2,0,0,1,17.55,25.6Z"/><path class="cls-12" d="M6,22.06H49.79c1.05,0,4.8,0,4.8.06s-3.75.07-4.8.07H6Z"/><path class="cls-12" d="M23.23,22.09h0v4.77c0,.14,0,.24-.09.24s-.09-.1-.09-.24V22.09Z"/><path class="cls-12" d="M29.47,22.09h0v4.77c0,.14,0,.24-.09.24s-.09-.1-.09-.24V22.09Z"/><path class="cls-12" d="M37.7,22.09h0v4.77c0,.14,0,.24-.08.24s-.09-.1-.09-.24V22.09Z"/><path class="cls-12" d="M49.11,22.09h0v4.77c0,.14,0,.24-.09.24S49,27,49,26.86V22.09Z"/></g></g></svg>