<svg xmlns="http://www.w3.org/2000/svg" xmlns:xlink="http://www.w3.org/1999/xlink" viewBox="0 0 60.77 39.2"><defs><style>.cls-1{fill:#fff;stroke:#000;stroke-miterlimit:10;stroke-width:0.15px;}.cls-2{fill:url(#radial-gradient);}.cls-3{fill:url(#linear-gradient);}.cls-4{fill:url(#linear-gradient-2);}.cls-5{fill:url(#linear-gradient-3);}.cls-6{fill:url(#linear-gradient-4);}.cls-7{fill:url(#linear-gradient-5);}</style><radialGradient id="radial-gradient" cx="30.39" cy="18.31" r="19.84" gradientUnits="userSpaceOnUse"><stop offset="0" stop-color="#febf10"/><stop offset="0.43" stop-color="#febd11"/><stop offset="0.65" stop-color="#fcb514"/><stop offset="0.84" stop-color="#faa719"/><stop offset="0.86" stop-color="#faa51a"/><stop offset="0.98" stop-color="#f9a11b"/></radialGradient><linearGradient id="linear-gradient" x1="9.26" y1="25.21" x2="16.88" y2="25.21" gradientUnits="userSpaceOnUse"><stop offset="0.01" stop-color="#8c8c8c"/><stop offset="0.06" stop-color="#707070"/><stop offset="0.14" stop-color="#4f4f4f"/><stop offset="0.23" stop-color="#343434"/><stop offset="0.33" stop-color="#1f1f1f"/><stop offset="0.43" stop-color="#101010"/><stop offset="0.56" stop-color="#080808"/><stop offset="0.75" stop-color="#050505"/></linearGradient><linearGradient id="linear-gradient-2" x1="11.95" y1="25.2" x2="14.69" y2="25.2" gradientUnits="userSpaceOnUse"><stop offset="0" stop-color="#fff"/><stop offset="0.07" stop-color="#ededf0"/><stop offset="0.17" stop-color="#d9d9e0"/><stop offset="0.24" stop-color="#d2d2da"/><stop offset="0.54" stop-color="#e1e1e6"/><stop offset="1" stop-color="#f5f5f5"/></linearGradient><linearGradient id="linear-gradient-3" x1="44.96" y1="25.21" x2="52.09" y2="25.21" xlink:href="#linear-gradient"/><linearGradient id="linear-gradient-4" x1="47.15" y1="25.2" x2="49.89" y2="25.2" xlink:href="#linear-gradient-2"/><linearGradient id="linear-gradient-5" x1="4.19" y1="20.25" x2="6.29" y2="20.25" xlink:href="#linear-gradient-2"/></defs><title>car</title><g id="Layer_2" data-name="Layer 2"><g id="Layer_1-2" data-name="Layer 1"><rect class="cls-1" x="0.08" y="0.08" width="60.62" height="39.04" rx="12.38" ry="12.38"/><path class="cls-2" d="M3.49,19.78s1.93-4.39,14.37-4.21c0,0,12.4-12.8,37.49,1.6,0,0-.55,2.8,1.52,2.8.42,2.11.86,4.88-.55,6.32H52.93a5.2,5.2,0,0,0,.12-1.05,4.62,4.62,0,1,0-9.23,0,4.57,4.57,0,0,0,.12,1.05H17.82a5.19,5.19,0,0,0,.11-1.05,4.67,4.67,0,0,0-4.61-4.74c-3.48,0-5.46,3.63-5.11,5.76l-4.72-.5C4.21,21.39,3.49,19.78,3.49,19.78Zm35.2-3.49h11a50.25,50.25,0,0,0-11-3.47Zm-2.39,0V12.41a24.43,24.43,0,0,0-16.46,3.88Z"/><path class="cls-3" d="M13.32,21.54a3.67,3.67,0,0,1,0,7.33c-2,0-4.06-1.64-4.06-3.66S11.35,21.54,13.32,21.54Z"/><path class="cls-4" d="M13.32,26.61A1.41,1.41,0,1,0,12,25.2,1.39,1.39,0,0,0,13.32,26.61Z"/><path class="cls-5" d="M48.52,21.54A3.67,3.67,0,1,1,45,25.21,3.62,3.62,0,0,1,48.52,21.54Z"/><path class="cls-6" d="M48.52,26.61a1.41,1.41,0,1,0-1.37-1.41A1.39,1.39,0,0,0,48.52,26.61Z"/><polygon class="cls-7" points="6.29 20.92 4.19 20.92 4.19 19.59 6.29 19.59 6.29 20.92 6.29 20.92"/></g></g></svg>