<svg xmlns="http://www.w3.org/2000/svg" viewBox="0 0 33.94 25.29"><defs><style>.cls-1{fill:#010101;}.cls-2{fill:#fff;}</style></defs><title>card-4</title><g id="Layer_2" data-name="Layer 2"><g id="Layer_1-2" data-name="Layer 1"><path class="cls-1" d="M28.44,15.6l-21.15-1,0-.67c0-.19.26-4.75,4.38-6.37A14.14,14.14,0,0,1,16.19,7C22.11,7,28.44,9,28.44,14.89ZM8.76,13.29l18.3.89c-.66-5.59-9.12-5.89-10.87-5.89a12.5,12.5,0,0,0-4,.5A5.86,5.86,0,0,0,8.76,13.29Z"/><path class="cls-2" d="M33.63,22.14c-.16-8.66-5.23-9.24-14.17-9.51-1,0-2-.05-2.94-.05-6.06,0-10.38.64-13.62,2S.38,21.94.42,22.2l0,.29H33.63Z"/><path class="cls-1" d="M33.94,22.79H.2l-.08-.55c0-.26-.86-6.45,2.66-7.94,3.28-1.37,7.64-2,13.74-2,.93,0,1.92,0,2.95.05,8.86.27,14.29.89,14.45,9.81ZM.72,22.19H33.33v0c-.16-8.41-4.87-8.95-13.88-9.22-1,0-2,0-2.93,0-6,0-10.3.63-13.51,2S.68,21.91.71,22.16Z"/><path class="cls-1" d="M33.63,22.14c-.11-6.05-2.63-8.16-7.18-9l-.92,3.22-2.47,2.88-5.82.52-5.9-.68L7.43,13.32v0a22.16,22.16,0,0,0-4.53,1.3C-.42,16,.38,21.94.42,22.2l0,.29H33.63Z"/><path class="cls-2" d="M2,18.15A3.62,3.62,0,0,0,6,15.48S3,14.69,2,18.15Z"/><path class="cls-2" d="M9.4,22a2.76,2.76,0,1,1-2.76-2.76A2.76,2.76,0,0,1,9.4,22Z"/><polygon class="cls-1" points="6.64 22.03 5.7 19.44 6.64 19.27 6.64 22.03"/><polygon class="cls-1" points="6.64 22.03 4.15 20.86 4.69 20.08 6.64 22.03"/><polygon class="cls-1" points="6.64 22.03 4.05 22.97 3.88 22.03 6.64 22.03"/><polygon class="cls-1" points="6.64 22.03 5.48 24.52 4.69 23.98 6.64 22.03"/><polygon class="cls-1" points="6.64 22.03 7.58 24.62 6.64 24.78 6.64 22.03"/><polygon class="cls-1" points="6.64 22.03 9.13 23.19 8.59 23.98 6.64 22.03"/><polygon class="cls-1" points="6.64 22.03 9.23 21.09 9.4 22.03 6.64 22.03"/><polygon class="cls-1" points="6.64 22.03 7.81 19.54 8.59 20.08 6.64 22.03"/><path class="cls-1" d="M7.49,22a.85.85,0,1,1-.85-.85A.85.85,0,0,1,7.49,22Z"/><path class="cls-1" d="M6.64,25.29A3.26,3.26,0,1,1,9.9,22,3.26,3.26,0,0,1,6.64,25.29Zm0-5.51A2.25,2.25,0,1,0,8.89,22,2.25,2.25,0,0,0,6.64,19.78Z"/><path class="cls-2" d="M31.05,22a2.76,2.76,0,1,1-2.76-2.76A2.76,2.76,0,0,1,31.05,22Z"/><polygon class="cls-1" points="28.29 22.03 27.35 19.44 28.29 19.27 28.29 22.03"/><polygon class="cls-1" points="28.29 22.03 25.8 20.86 26.34 20.08 28.29 22.03"/><polygon class="cls-1" points="28.29 22.03 25.7 22.97 25.54 22.03 28.29 22.03"/><polygon class="cls-1" points="28.29 22.03 27.13 24.52 26.34 23.98 28.29 22.03"/><polygon class="cls-1" points="28.29 22.03 29.23 24.62 28.29 24.78 28.29 22.03"/><polygon class="cls-1" points="28.29 22.03 30.79 23.19 30.24 23.98 28.29 22.03"/><polygon class="cls-1" points="28.29 22.03 30.88 21.09 31.05 22.03 28.29 22.03"/><polygon class="cls-1" points="28.29 22.03 29.45 19.54 30.24 20.08 28.29 22.03"/><path class="cls-1" d="M29.14,22a.85.85,0,1,1-.85-.85A.85.85,0,0,1,29.14,22Z"/><path class="cls-1" d="M28.29,25.29A3.26,3.26,0,1,1,31.55,22,3.26,3.26,0,0,1,28.29,25.29Zm0-5.51A2.25,2.25,0,1,0,30.54,22,2.25,2.25,0,0,0,28.29,19.78Z"/><path class="cls-1" d="M17.24,15.93c0,.37-.21.67-.46.67H15c-.25,0-.46-.3-.46-.67h0c0-.38.21-.68.46-.68h1.82c.25,0,.46.3.46.68Z"/><path class="cls-1" d="M25.8,15.93c0,.37-.21.67-.47.67H23.52c-.26,0-.46-.3-.46-.67h0c0-.38.2-.68.46-.68h1.81c.26,0,.47.3.47.68Z"/><path class="cls-1" d="M17.47,12.67a.31.31,0,0,0-.25-.09H16.9v6.94c-1.43,0-4.38-.19-5.28-.73-1.08-.65-2.65-4-3.28-5.52L8.81,13l-1.08-.18a.33.33,0,0,0-.27.15.37.37,0,0,0,0,.31c.08.19,2.21,5.06,3.84,6.05,1.34.8,5.78.83,6,.83h0a.33.33,0,0,0,.24-.1.33.33,0,0,0,.09-.23v-7A.31.31,0,0,0,17.47,12.67Z"/><path class="cls-1" d="M26.71,13.31a.38.38,0,0,0-.26-.14L26,13.11v.7h0c-.46,1.48-1.54,4.37-2.61,5-.91.55-4.23.7-5.81.72v-7h-.52a.64.64,0,0,1,0,.1.32.32,0,0,0-.11.24v7a.34.34,0,0,0,.34.33c.52,0,5.17,0,6.48-.81,1.65-1,3-5.61,3-5.8A.36.36,0,0,0,26.71,13.31Z"/><path class="cls-2" d="M25.67,18.09h-.21c-.77,0-3.39-.17-4.6-2.4-1.5-2.76-.1-7.48,4.16-14l.65-1,.65,1c4.26,6.54,5.66,11.26,4.16,14-1.21,2.23-3.83,2.4-4.6,2.4Z"/><path class="cls-1" d="M25.67,2.1c-10.39,16,0,15.21,0,15.21S36.07,18.05,25.67,2.1Z"/><path class="cls-2" d="M21.84,13.63a3.32,3.32,0,0,1-2.94-1.55c-.94-1.73-.15-4.49,2.41-8.43l.65-1,.65,1C25.17,7.59,26,10.35,25,12.08a3.32,3.32,0,0,1-2.94,1.55Z"/><path class="cls-1" d="M22,4.08c-6,9.21,0,8.78,0,8.78S28,13.29,22,4.08Z"/><path class="cls-2" d="M26.34,15.93s5.16-.24,1.43-8.31C27.77,7.62,29.61,13.53,26.34,15.93Z"/><path class="cls-2" d="M22.24,12.14s3-.14.84-4.86C23.08,7.28,24.15,10.73,22.24,12.14Z"/><path class="cls-1" d="M28.43,14.92l-21.15-1,0-.67c0-.19.26-4.75,4.38-6.36a13.81,13.81,0,0,1,4.49-.59c5.92,0,12.25,2.09,12.25,7.94ZM8.75,12.61l18.3.89c-.66-5.59-9.12-5.89-10.87-5.89a12.5,12.5,0,0,0-4,.5A5.86,5.86,0,0,0,8.75,12.61Z"/><path class="cls-2" d="M33.61,21.47c-.15-8.67-5.22-9.25-14.16-9.52-1,0-2,0-2.94,0-6.06,0-10.38.63-13.62,2S.37,21.27.41,21.52l0,.29H33.62Z"/><path class="cls-1" d="M33.92,22.11H.19l-.08-.55c0-.26-.86-6.45,2.66-7.93,3.28-1.38,7.64-2,13.74-2,.93,0,1.92,0,2.95,0,8.86.27,14.29.89,14.45,9.81ZM.71,21.51H33.32v0c-.16-8.41-4.87-8.94-13.88-9.22-1,0-2-.05-2.93-.05-6,0-10.31.63-13.51,2S.67,21.23.7,21.48Z"/><path class="cls-1" d="M33.61,21.47c-.1-6.06-2.62-8.16-7.17-9l-.92,3.22L23.05,18.6l-5.82.51-5.9-.67-3.91-5.8v0a22.16,22.16,0,0,0-4.53,1.3C-.43,15.3.37,21.27.41,21.52l0,.29H33.62Z"/><path class="cls-2" d="M2,17.47A3.62,3.62,0,0,0,6,14.8S3,14,2,17.47Z"/><path class="cls-2" d="M9.39,21.35A2.76,2.76,0,1,1,6.63,18.6,2.77,2.77,0,0,1,9.39,21.35Z"/><polygon class="cls-1" points="6.63 21.35 5.69 18.76 6.63 18.6 6.63 21.35"/><polygon class="cls-1" points="6.63 21.35 4.14 20.19 4.68 19.4 6.63 21.35"/><polygon class="cls-1" points="6.63 21.35 4.04 22.29 3.88 21.35 6.63 21.35"/><polygon class="cls-1" points="6.63 21.35 5.46 23.85 4.68 23.3 6.63 21.35"/><polygon class="cls-1" points="6.63 21.35 7.57 23.94 6.63 24.11 6.63 21.35"/><polygon class="cls-1" points="6.63 21.35 9.13 22.52 8.58 23.3 6.63 21.35"/><polygon class="cls-1" points="6.63 21.35 9.22 20.41 9.39 21.35 6.63 21.35"/><polygon class="cls-1" points="6.63 21.35 7.8 18.86 8.58 19.4 6.63 21.35"/><path class="cls-1" d="M7.48,21.35a.85.85,0,1,1-.85-.85A.85.85,0,0,1,7.48,21.35Z"/><path class="cls-1" d="M6.63,24.61a3.26,3.26,0,1,1,3.26-3.26A3.26,3.26,0,0,1,6.63,24.61Zm0-5.51a2.25,2.25,0,1,0,2.25,2.25A2.25,2.25,0,0,0,6.63,19.1Z"/><path class="cls-2" d="M31,21.35a2.76,2.76,0,1,1-2.75-2.75A2.76,2.76,0,0,1,31,21.35Z"/><polygon class="cls-1" points="28.28 21.35 27.34 18.76 28.28 18.6 28.28 21.35"/><polygon class="cls-1" points="28.28 21.35 25.79 20.19 26.33 19.4 28.28 21.35"/><polygon class="cls-1" points="28.28 21.35 25.69 22.29 25.52 21.35 28.28 21.35"/><polygon class="cls-1" points="28.28 21.35 27.12 23.85 26.33 23.3 28.28 21.35"/><polygon class="cls-1" points="28.28 21.35 29.22 23.94 28.28 24.11 28.28 21.35"/><polygon class="cls-1" points="28.28 21.35 30.77 22.52 30.23 23.3 28.28 21.35"/><polygon class="cls-1" points="28.28 21.35 30.87 20.41 31.04 21.35 28.28 21.35"/><polygon class="cls-1" points="28.28 21.35 29.44 18.86 30.23 19.4 28.28 21.35"/><path class="cls-1" d="M29.13,21.35a.85.85,0,1,1-.85-.85A.85.85,0,0,1,29.13,21.35Z"/><path class="cls-1" d="M28.28,24.61a3.26,3.26,0,1,1,3.26-3.26A3.26,3.26,0,0,1,28.28,24.61Zm0-5.51a2.25,2.25,0,1,0,2.25,2.25A2.25,2.25,0,0,0,28.28,19.1Z"/><path class="cls-1" d="M17.23,15.25c0,.37-.21.68-.46.68H15c-.25,0-.46-.31-.46-.68h0c0-.37.21-.67.46-.67h1.82c.25,0,.46.3.46.67Z"/><path class="cls-1" d="M25.79,15.25c0,.37-.21.68-.47.68H23.51c-.26,0-.46-.31-.46-.68h0c0-.37.2-.67.46-.67h1.81c.26,0,.47.3.47.67Z"/><path class="cls-1" d="M17.46,12a.3.3,0,0,0-.25-.08h-.32v6.94c-1.43,0-4.38-.19-5.28-.74-1.08-.65-2.65-4-3.28-5.52l.47-.23-1.08-.18a.34.34,0,0,0-.27.16.32.32,0,0,0,0,.3c.08.19,2.21,5.07,3.84,6.05,1.34.81,5.78.83,6,.83h0a.32.32,0,0,0,.23-.09.33.33,0,0,0,.1-.24v-7A.31.31,0,0,0,17.46,12Z"/><path class="cls-1" d="M26.7,12.63a.38.38,0,0,0-.26-.14L26,12.43v.71h0c-.46,1.47-1.54,4.36-2.61,5-.91.54-4.23.69-5.81.71V11.91H17S17,12,17,12a.33.33,0,0,0-.11.25v7a.34.34,0,0,0,.34.34c.52,0,5.17,0,6.48-.82,1.65-1,3-5.6,3-5.8A.37.37,0,0,0,26.7,12.63Z"/><path class="cls-2" d="M25.66,17.41h-.21c-.77,0-3.39-.17-4.6-2.4-1.5-2.76-.1-7.48,4.16-14l.65-1,.65,1C30.57,7.53,32,12.25,30.47,15c-1.21,2.23-3.83,2.4-4.6,2.4Z"/><path class="cls-1" d="M25.66,1.42c-10.39,16,0,15.21,0,15.21S36.06,17.38,25.66,1.42Z"/><path class="cls-2" d="M21.83,13a3.34,3.34,0,0,1-2.94-1.56C18,9.67,18.74,6.91,21.3,3L22,2l.65,1C25.16,6.91,26,9.67,25,11.4A3.34,3.34,0,0,1,22.07,13Z"/><path class="cls-1" d="M22,3.4c-6,9.21,0,8.78,0,8.78S28,12.61,22,3.4Z"/><path class="cls-2" d="M26.33,15.25s5.16-.24,1.43-8.31C27.76,6.94,29.6,12.85,26.33,15.25Z"/><path class="cls-2" d="M22.23,11.46s3-.14.84-4.86C23.07,6.6,24.14,10.05,22.23,11.46Z"/></g></g></svg>