<svg xmlns="http://www.w3.org/2000/svg" viewBox="0 0 21.52 28.54"><defs><style>.cls-1{fill:#010101;}</style></defs><title>card-3</title><g id="Layer_2" data-name="Layer 2"><g id="Layer_1-2" data-name="Layer 1"><path class="cls-1" d="M16.68,27.25c-.77,0-1.4.38-1.39.84a.59.59,0,0,0,.23.45h2.35a.65.65,0,0,0,.22-.46C18.09,27.62,17.46,27.25,16.68,27.25Z"/><path class="cls-1" d="M11,27.49a4.62,4.62,0,0,0-.91.35,1.8,1.8,0,0,1-.44.16.7.7,0,0,0-.06.31c0,.09,0,.12,0,.12l3.62,0a6.8,6.8,0,0,0,.07-1C13.07,27.42,12.29,27.44,11,27.49Z"/><path class="cls-1" d="M14.47,5.41a2.4,2.4,0,0,0,1.63-1,2.88,2.88,0,0,0,.42-.79l-.06,0-.07,0h0l-.12,0,0,0a6.86,6.86,0,0,1-.47.82,1.91,1.91,0,0,1-1.28.77c-.63,0-1-.65-1.15-1.41a3.85,3.85,0,0,1,0-1.07,1.92,1.92,0,0,1-.37-.15s0,1.1,0,1.09C13.09,4.51,13.61,5.41,14.47,5.41Z"/><path class="cls-1" d="M13.1,2.36h0l.06,0,.06,0a2.13,2.13,0,0,1,.38.14l.22.08h0a3.07,3.07,0,0,0,.83.13.63.63,0,0,0,.46-.13l1.18.62v0a5.75,5.75,0,0,1,.7.34l.08-.2a2.59,2.59,0,0,0,0-2.13A2.33,2.33,0,0,0,15.71.13,2.28,2.28,0,0,0,14.93,0a2.44,2.44,0,0,0-2.11,1.21c-.35,0-.56.07-.62.25C12.06,1.81,12.67,2.16,13.1,2.36Z"/><path class="cls-1" d="M21.45,15.6a3.54,3.54,0,0,0-.64-1l.39-.11L18.88,6h0V5.87L16.25,5l-1,1.45-.62-.72-.86.72L13,4.86l-2,.71-2.41.82L5.31,5.27c-.06.26-.72,1.3-.78,1.63l4.11,2,2.54-.5L11.56,16,11,27.21c1.3-.06,2.1-.07,2.36-.08l1.08-9.71,1.09,9.8A2.39,2.39,0,0,1,16.64,27a2.32,2.32,0,0,1,1.2.3l-.22-11.11.62-5L19.3,15l.36-.1a1.62,1.62,0,0,0-.22,1.42c.09.2.22.23.29.23a.44.44,0,0,0,.32-.22c.2.44.52.74.84.74l.13,0C21.44,17,21.63,16.31,21.45,15.6ZM14.07,8.39l-.88-1.91.6.6.6-.55Zm.78.13-.16-2,.38.53.84-.7ZM21,16.79c-.24.07-.6-.26-.75-.84l-.11-.43-.15.41c-.12.32-.21.35-.21.35a.36.36,0,0,1-.07-.16A1.43,1.43,0,0,1,20,15l.64-.22a3.19,3.19,0,0,1,.59.92C21.33,16.26,21.18,16.73,21,16.79Z"/><rect class="cls-1" y="1.43" width="1.8" height="16.76"/><path class="cls-1" d="M4.77,5.93l0,0a1.3,1.3,0,0,0,.27-.64l.36-.44A.91.91,0,1,0,5,4.47l-.19.23a.6.6,0,0,0-.56,0,1.29,1.29,0,0,0-.57.43l0,0a.92.92,0,0,0-.13,1.13L2.19,7.9v.81L4.13,6.38l.06,0A1.38,1.38,0,0,0,4.77,5.93Z"/><polygon class="cls-1" points="2.81 12.04 3.7 11.32 3.7 10.83 2.81 11.56 2.81 12.04"/><polygon class="cls-1" points="2.81 14.9 3.7 14.18 3.7 13.75 2.81 14.47 2.81 14.9"/><path class="cls-1" d="M2.08,9.37v8A.5.5,0,0,0,2.6,17V9.8A.49.49,0,0,0,2.08,9.37Z"/></g></g></svg>