<svg xmlns="http://www.w3.org/2000/svg" viewBox="0 0 33.78 18.4"><defs><style>.cls-1{fill:#010101;}</style></defs><title>card-1</title><g id="Layer_2" data-name="Layer 2"><g id="Layer_1-2" data-name="Layer 1"><path class="cls-1" d="M15.52,5a4.71,4.71,0,0,0,3,0,6,6,0,0,0,1.25-1.26.76.76,0,0,1,0-.15l-.07-.21V2.88A2.85,2.85,0,0,0,17.1,0a2.85,2.85,0,0,0-2.58,2.88v.35l-.15.33a.43.43,0,0,1,0,0A6.24,6.24,0,0,0,15.52,5Z"/><path class="cls-1" d="M18.94,5c-.11,1.5-.91,2.67-1.87,2.67S15.32,6.57,15.2,5.1a3.82,3.82,0,0,1-.47-.5v.09c0,1.91,1,3.47,2.34,3.47S19.4,6.6,19.4,4.69V4.6A4.67,4.67,0,0,1,18.94,5Z"/><path class="cls-1" d="M30,17a2.31,2.31,0,0,0-1.13-.86L28.6,16V15a2.13,2.13,0,0,0,.45-.13h1.89a.35.35,0,0,0,.35-.35.35.35,0,0,0-.35-.35H29.89a.74.74,0,0,0,.08-.29v-.08c0-.67-.81-1.2-1.82-1.2h0a2.54,2.54,0,0,0-1.26.34L22.58,8.65h0l-.1-.16L21.2,8l-1.38,5.73a1.85,1.85,0,0,1,.24.92V17H13.73V14.65a1.81,1.81,0,0,1,.5-1.27L12.9,7.83l-.7.24L9.27,10h.67a.65.65,0,1,1,0,1.29h-2v3.16l1.24-.24,3.13-1.15.05,3.9H9.12A2.34,2.34,0,0,0,7.9,16c-.1,0-.2-.06-.3-.09V11.29A2,2,0,0,0,8.27,11l0,0H9.94a.35.35,0,0,0,.35-.35.35.35,0,0,0-.35-.35H8.82a1.1,1.1,0,0,0,0-.18.49.49,0,0,0,0-.12C8.73,9.39,8,8.93,7,8.93H7a2.3,2.3,0,0,0-1.26.34,1.16,1.16,0,0,0-.56.73,1,1,0,0,0,0,.17.57.57,0,0,0,0,.13H4.31a.35.35,0,0,0-.35.35.35.35,0,0,0,.35.35H5.64a2.05,2.05,0,0,0,.69.29h0l.3,0v4.53c-.1,0-.2,0-.3.09a2.34,2.34,0,0,0-1.22,1H0V18.4H33.78V17ZM5.59,10.17A.68.68,0,0,1,6,9.65a1.93,1.93,0,0,1,1-.27H7c.74,0,1.37.35,1.37.76a.68.68,0,0,1-.36.52,2,2,0,0,1-1,.27H7C6.23,10.92,5.6,10.58,5.59,10.17Zm21.5,3.11a2,2,0,0,1,1-.27h0c.74,0,1.37.35,1.38.75a.68.68,0,0,1-.37.52,1.91,1.91,0,0,1-1,.27h0c-.75,0-1.38-.35-1.38-.76A.68.68,0,0,1,27.09,13.28ZM21.85,13l4.43,3.36,1-.53.07-.74h-2a.65.65,0,1,1,0-1.29h1a1,1,0,0,0,.07.29h-1a.35.35,0,0,0-.35.35.34.34,0,0,0,.35.35h1.84a2.53,2.53,0,0,0,.49.14v1l-.29.08a2.34,2.34,0,0,0-1.14.86H21.48Z"/><path class="cls-1" d="M15.07,13h3.65a1.14,1.14,0,0,1,.33.05l1.3-5.41-.94-.36L17.47,9.14l-.44-1-.68.86L14.9,7.16l-1.24.42.1,0Zm2.5-3,1.11-.91L17.27,12l-.19-2.62Zm-1.68,0,.8-.72-.45,2.44L15.11,9.28Z"/></g></g></svg>