<svg xmlns="http://www.w3.org/2000/svg" viewBox="0 0 28.76 16.23"><title>card-5</title><g id="Layer_2" data-name="Layer 2"><g id="Layer_1-2" data-name="Layer 1"><path d="M7.8,7.44a1.3,1.3,0,1,0,1.3,1.3A1.3,1.3,0,0,0,7.8,7.44Zm0,1.93a.63.63,0,1,1,.62-.63A.63.63,0,0,1,7.8,9.37Z"/><path d="M17.05,7.44a1.3,1.3,0,1,0,1.3,1.3A1.3,1.3,0,0,0,17.05,7.44Zm0,1.93a.63.63,0,0,1,0-1.25.63.63,0,0,1,0,1.25Z"/><path d="M20.11,8.06V5.32a.31.31,0,0,0-.2-.27l-1-.35a1.75,1.75,0,0,1-.35-.2L17,3.2a.66.66,0,0,0-.36-.13l-5.23,0a.63.63,0,0,0-.35.13L9,5a1.31,1.31,0,0,1-.35.19L5.84,6a.55.55,0,0,0-.28.24L5,7.36a.67.67,0,0,0,0,.37l.16.81a.28.28,0,0,0,.25.2H6.1a1.71,1.71,0,0,1,3.41,0h5.84a1.7,1.7,0,0,1,3.39-.22l1.17-.22A.27.27,0,0,0,20.11,8.06ZM6.9,6.41a1.65,1.65,0,0,1-1.24.7.11.11,0,0,1-.11-.18l.19-.39A.4.4,0,0,1,6,6.34l.79-.08C6.93,6.26,7,6.33,6.9,6.41ZM9.46,5.1l1.81-1.55.1,0h2L13.45,5ZM13.86,5,13.73,3.5l2.53,0,.12,1.39Zm2.92-.09L16.67,3.5h0l1.57,1.3Z"/><path d="M16.13,14.39a.12.12,0,0,1-.12.11h-7a.11.11,0,0,1-.12-.11v-.58H0v2a.41.41,0,0,0,.4.41H24.65a.41.41,0,0,0,.41-.41v-2H16.13Z"/><path d="M2.22,13.12H22.84a.31.31,0,0,0,.31-.31V.31A.31.31,0,0,0,22.84,0H2.22a.31.31,0,0,0-.31.31v12.5A.31.31,0,0,0,2.22,13.12ZM2.48.57H22.57v12H2.48Z"/><path d="M28.76,1.32h-.18V.45a.29.29,0,0,0-.29-.29h-2A.29.29,0,0,0,26,.45v.87h-.18V2.87L27,3.93v10.8H25.12v.57H27.3a.28.28,0,0,0,.29-.28V3.93l1.17-1.06ZM26.59.74H28v.55H26.59Z"/></g></g></svg>