<svg xmlns="http://www.w3.org/2000/svg" viewBox="0 0 32.46 28.59"><defs><style>.cls-1{fill:#1b763b;}.cls-2{fill:#3fa948;}.cls-3{fill:#203219;}.cls-4{fill:#288a42;}.cls-5{fill:#fff;}.cls-6{fill:#3e3e3e;}.cls-7{fill:#b0b0b0;}.cls-8{fill:#dcdbdb;}.cls-9{fill:#989898;}.cls-10{fill:#7d7d7d;}.cls-11{fill:#b7b5b6;}.cls-12{fill:#505050;}</style></defs><title>card-2</title><g id="Layer_2" data-name="Layer 2"><g id="Layer_1-2" data-name="Layer 1"><rect class="cls-1" x="21.74" y="6.03" width="2.87" height="0.87" transform="translate(11.57 27.54) rotate(-76.74)"/><rect class="cls-1" x="18.6" y="19.37" width="2.87" height="0.87" transform="translate(-3.84 34.76) rotate(-76.74)"/><rect class="cls-2" x="4.41" y="3.98" width="19.62" height="14.83" rx="2.61" ry="2.61" transform="translate(-0.13 22.62) rotate(-76.74)"/><rect class="cls-3" x="5.16" y="4.67" width="18.12" height="13.45" rx="2.52" ry="2.52" transform="translate(-0.13 22.62) rotate(-76.74)"/><path class="cls-4" d="M25,28.56h0a1.25,1.25,0,0,0,1.51-.94l.26-1.1-1.22-.29Z"/><path class="cls-4" d="M20.91,21.19,24.58,5.62A.84.84,0,0,1,25.12,5l6.69-2.09c.24-.08.45.16.38.43L26.71,26.62a.33.33,0,0,1-.54.21L21.12,22A.83.83,0,0,1,20.91,21.19Z"/><polygon class="cls-4" points="24.42 27.04 26.38 26.92 24.9 24.45 24.42 27.04"/><polygon class="cls-4" points="30.33 1.95 32.03 2.94 29.6 4.48 30.33 1.95"/><path class="cls-4" d="M31.5.84h0a1.24,1.24,0,0,1,.93,1.5l-.28,1.2-1.22-.29Z"/><path class="cls-2" d="M19.72,22.18,24,4.2a1,1,0,0,1,.56-.72L31.33.85c.25-.1.45.16.38.48L25.37,28.21c-.07.32-.37.46-.55.27l-4.92-5.4A1,1,0,0,1,19.72,22.18Z"/><path class="cls-5" d="M30.9,2.37,25.11,26.92a.36.36,0,0,1-.61.17l-4.07-4.31a.67.67,0,0,1-.16-.61L24.44,4.48A.66.66,0,0,1,24.86,4L30.42,2A.36.36,0,0,1,30.9,2.37Z"/><path class="cls-6" d="M8.35,4l-.52-.13L8.28,2l.52.12.08-.31-1.72-.4a.28.28,0,0,0-.35.21l-.46,2a.29.29,0,0,0,.21.35l1.72.4ZM6.73,3.2,7,2l.93.22L7.66,3.42Z"/><path class="cls-6" d="M5.21,17.32l-.52-.12.45-1.91.52.12.07-.3L4,14.7a.29.29,0,0,0-.35.22l-.46,2a.28.28,0,0,0,.22.34l1.72.41Zm-1.62-.78.27-1.15.93.21-.27,1.16Z"/><path class="cls-6" d="M32,7.05l.2-.84a.14.14,0,0,0-.07-.16l-1-.51-.39,1.64,1.12,0A.14.14,0,0,0,32,7.05Z"/><path class="cls-6" d="M28,24.05l.19-.84a.14.14,0,0,0-.07-.16l-1-.51-.39,1.64,1.11,0A.15.15,0,0,0,28,24.05Z"/><rect class="cls-7" x="10.83" y="13.65" width="1.17" height="6.23" transform="translate(-7.52 24.02) rotate(-76.72)"/><polygon class="cls-8" points="8.52 15.48 13.99 17.97 8.25 16.62 8.52 15.48"/><path class="cls-9" d="M13.55,17.27h0a.29.29,0,0,0-.21-.35L9.39,16A.29.29,0,0,0,9,16.2H9a.28.28,0,0,0,.21.35l3.95.93A.29.29,0,0,0,13.55,17.27Z"/><path class="cls-9" d="M8.56,16.69l-.31-.07,0-.11.06,0,.25-.32v-.41l-.1-.15,0-.13.31.07a1,1,0,0,1,.06.62A1,1,0,0,1,8.56,16.69Z"/><path class="cls-9" d="M13.71,17.91a1.11,1.11,0,0,1,.22-1l.1-.1.55.13-.27,1.14Z"/><path class="cls-7" d="M14.21,16.94a1.08,1.08,0,0,1,1.52-.1,1.09,1.09,0,0,1,.36,1l-.71-.61-.62.21-.13.65.7.62a1.09,1.09,0,0,1-1-.22A1.08,1.08,0,0,1,14.21,16.94Z"/><path class="cls-7" d="M7.46,16.82a1,1,0,1,0-.71-1.16A1,1,0,0,0,7.46,16.82Zm.21-.28-.39-.13-.23-.34v-.41l.24-.32.4-.12.38.14.24.33v.41l-.25.33Z"/><path class="cls-8" d="M6.75,15.66a1,1,0,0,1,.35-.54l.26.2-.06,0-.24.32v.41l.23.34.39.13.39-.11.25-.33h0l.21.17v.09a1,1,0,0,1-1.76-.7Z"/><rect class="cls-7" x="11.07" y="11.61" width="1.08" height="5.76" transform="translate(-5.16 22.46) rotate(-76.72)"/><polygon class="cls-8" points="8.93 13.3 13.99 15.6 8.68 14.35 8.93 13.3"/><path class="cls-9" d="M13.58,15h0a.27.27,0,0,0-.2-.33l-3.65-.86a.27.27,0,0,0-.32.2h0a.26.26,0,0,0,.2.32l3.65.86A.25.25,0,0,0,13.58,15Z"/><path class="cls-9" d="M9,14.42l-.29-.07,0-.1h.05l.23-.3v-.38l-.09-.14,0-.12.28.07a.85.85,0,0,1,.06.57A1,1,0,0,1,9,14.42Z"/><path class="cls-9" d="M13.74,15.54a1,1,0,0,1,.2-.95l.09-.08.5.11-.24,1.05Z"/><path class="cls-7" d="M14.19,14.65a1,1,0,0,1,1.41-.09,1,1,0,0,1,.33.91l-.65-.57-.58.2-.12.6.65.57a1,1,0,0,1-1-1.62Z"/><path class="cls-7" d="M8,14.54a.89.89,0,1,0,.41-1.73A.89.89,0,0,0,8,14.54Zm.19-.25-.36-.13-.21-.31v-.38l.22-.3.37-.11.35.13.22.31v.38l-.23.3Z"/><path class="cls-8" d="M7.29,13.47a.87.87,0,0,1,.33-.5l.23.19h0l-.22.3v.38l.21.31.36.13.36-.11.23-.3h0l.2.16v.09a.89.89,0,0,1-1.63-.65Z"/><rect class="cls-7" x="10.98" y="9.76" width="0.89" height="4.77" transform="translate(-3.02 20.48) rotate(-76.73)"/><polygon class="cls-8" points="9.21 11.16 13.4 13.07 9 12.03 9.21 11.16"/><path class="cls-9" d="M13.06,12.53h0a.21.21,0,0,0-.16-.26l-3-.72a.21.21,0,0,0-.26.17h0a.22.22,0,0,0,.16.27l3,.71A.21.21,0,0,0,13.06,12.53Z"/><path class="cls-9" d="M9.24,12.09,9,12,9,12h0l.19-.25v-.31l-.08-.12,0-.1.24.06a.69.69,0,0,1,.05.47A.76.76,0,0,1,9.24,12.09Z"/><path class="cls-9" d="M13.19,13a.81.81,0,0,1,.17-.78l.07-.08.42.1-.2.87Z"/><path class="cls-7" d="M13.57,12.28A.83.83,0,0,1,15,13l-.54-.47-.48.16-.1.5.54.47a.83.83,0,0,1-.86-1.34Z"/><path class="cls-7" d="M8.4,12.19a.73.73,0,1,0-.55-.89A.74.74,0,0,0,8.4,12.19ZM8.55,12l-.29-.1-.18-.26v-.31l.19-.25.3-.09.29.1.18.26v.31l-.19.25Z"/><path class="cls-8" d="M7.85,11.3a.73.73,0,0,1,.27-.41l.2.15,0,0-.19.25v.31l.18.26.29.1.3-.09L9,11.64H9l.17.13v.07a.73.73,0,0,1-1.35-.54Z"/><rect class="cls-7" x="10.86" y="7.91" width="0.7" height="3.73" transform="translate(-0.87 18.44) rotate(-76.73)"/><polygon class="cls-8" points="9.48 9 12.75 10.49 9.32 9.68 9.48 9"/><path class="cls-9" d="M12.49,10.07h0a.17.17,0,0,0-.13-.21L10,9.31a.17.17,0,0,0-.21.13h0a.19.19,0,0,0,.13.21l2.36.55A.16.16,0,0,0,12.49,10.07Z"/><path class="cls-9" d="M9.5,9.73l-.18-.05V9.62h0l.14-.2V9.17l-.06-.09,0-.08.18.05a.56.56,0,0,1,0,.36A.57.57,0,0,1,9.5,9.73Z"/><path class="cls-9" d="M12.59,10.46a.67.67,0,0,1,.13-.62l.06-.06.33.08-.16.68Z"/><path class="cls-7" d="M12.89,9.88a.64.64,0,0,1,1.12.53L13.59,10l-.37.13-.08.39.42.36a.6.6,0,0,1-.61-.13A.64.64,0,0,1,12.89,9.88Z"/><path class="cls-7" d="M8.84,9.8a.58.58,0,0,0,.7-.42.57.57,0,0,0-.43-.69.56.56,0,0,0-.69.42A.58.58,0,0,0,8.84,9.8ZM9,9.64l-.23-.08-.14-.2V9.11l.15-.19L9,8.85l.23.08.14.2v.25l-.15.19Z"/><path class="cls-8" d="M8.42,9.11a.55.55,0,0,1,.21-.32l.15.12h0l-.15.19v.25l.14.2L9,9.64l.23-.07.15-.19h0l.13.11v0a.57.57,0,0,1-1.05-.42Z"/><rect class="cls-10" x="11.99" y="5.91" width="1.17" height="0.4" transform="translate(0.66 13.43) rotate(-57.45)"/><path class="cls-7" d="M19.89,10,14.3,6.42a1.31,1.31,0,0,1-.6-1,1.9,1.9,0,0,0-2.62-1.69h0l1.12.71a.26.26,0,0,1,.07.35L11,6.69,12.22,7a4.29,4.29,0,0,1,1.24.54l5.69,3.63a.69.69,0,0,0,1-.21h0A.69.69,0,0,0,19.89,10ZM12.5,6.86l-.64-.4.73-1.14.64.4ZM19.26,11a.47.47,0,0,1-.15-.66.48.48,0,0,1,.81.51A.48.48,0,0,1,19.26,11Z"/><path class="cls-8" d="M19.35,11.24a.69.69,0,0,0,.75-.3h0a.69.69,0,0,0-.21-.95L14.3,6.42a.71.71,0,0,1-.14-.1h0Zm.57-.42a.48.48,0,1,1-.81-.51.48.48,0,0,1,.81.51Z"/><path class="cls-8" d="M11.79,5.51l-1.33-.85h0a2,2,0,0,0,.88,1.54Z"/><path class="cls-9" d="M18.27,10.34,13.73,7.45a.48.48,0,0,1-.14-.66h0a.47.47,0,0,1,.66-.15l4.54,2.9a.47.47,0,0,1,.14.66h0A.48.48,0,0,1,18.27,10.34Z"/><path class="cls-11" d="M11.34,6.2l.45-.69-.16-.1-.44.68Z"/><polygon class="cls-12" points="12.54 5.65 12.41 5.59 12.5 5.46 12.61 5.56 12.54 5.65"/><polygon class="cls-12" points="12.42 5.85 12.29 5.79 12.37 5.66 12.48 5.75 12.42 5.85"/><polygon class="cls-12" points="12.29 6.04 12.16 5.99 12.25 5.85 12.36 5.95 12.29 6.04"/><polygon class="cls-12" points="12.17 6.24 12.04 6.18 12.12 6.05 12.23 6.14 12.17 6.24"/><polygon class="cls-12" points="12.05 6.43 11.91 6.38 12 6.24 12.11 6.34 12.05 6.43"/><path class="cls-7" d="M13,6l-.46-.2a.06.06,0,0,1,0-.07h0a0,0,0,0,1,.06,0l.46.2a0,0,0,0,1,0,.07h0A0,0,0,0,1,13,6Z"/><path class="cls-7" d="M12.85,6.16,12.39,6s0,0,0-.07h0a0,0,0,0,1,.06,0l.46.2a0,0,0,0,1,0,.06h0A0,0,0,0,1,12.85,6.16Z"/><path class="cls-7" d="M12.72,6.36l-.46-.21a0,0,0,0,1,0-.06h0a.06.06,0,0,1,.07,0l.46.2a0,0,0,0,1,0,.06h0A0,0,0,0,1,12.72,6.36Z"/><path class="cls-7" d="M12.59,6.55l-.46-.2a0,0,0,0,1,0-.06h0a0,0,0,0,1,.06,0l.46.21a0,0,0,0,1,0,.06h0A.06.06,0,0,1,12.59,6.55Z"/><rect class="cls-9" x="12.87" y="5.51" width="0.09" height="0.12" transform="translate(1.26 13.46) rotate(-57.45)"/><rect class="cls-9" x="12.19" y="6.58" width="0.1" height="0.12" transform="matrix(0.54, -0.84, 0.84, 0.54, 0.06, 13.38)"/><rect class="cls-7" x="0.28" y="9.96" width="5.76" height="1.08" transform="translate(-6.93 6.22) rotate(-50.23)"/><polygon class="cls-8" points="0.91 12.37 5.23 8.87 1.74 13.06 0.91 12.37"/><path class="cls-9" d="M4.47,8.94h0a.27.27,0,0,0-.38,0l-2.4,2.88a.27.27,0,0,0,0,.38h0a.27.27,0,0,0,.38,0L4.5,9.31A.26.26,0,0,0,4.47,8.94Z"/><path class="cls-9" d="M1.93,12.83l-.19.23L1.66,13v-.05L1.5,12.6l-.33-.18-.17,0-.09-.08.19-.23a.89.89,0,0,1,.53.2A.94.94,0,0,1,1.93,12.83Z"/><path class="cls-9" d="M5.06,9.06a1,1,0,0,1-.76-.6.56.56,0,0,1,0-.12l.33-.4.83.69Z"/><path class="cls-7" d="M4.47,8.26A1,1,0,0,1,6,7.07l-.8.32L5.09,8l.49.38.8-.33a1,1,0,0,1-.61.75A1,1,0,0,1,4.47,8.26Z"/><path class="cls-7" d="M1.58,13.79a.89.89,0,0,0-.12-1.25.88.88,0,0,0-1.24.12.88.88,0,0,0,.11,1.25A.89.89,0,0,0,1.58,13.79Zm-.14-.28-.27.26-.38.06-.33-.18-.17-.34.06-.37.28-.26L1,12.62l.34.18.16.34Z"/><path class="cls-8" d="M.33,13.91a.85.85,0,0,1-.3-.52l.27-.13v.05l.17.34.33.18.38-.06.27-.26.06-.37-.16-.34h0l.23-.11.07,0a.89.89,0,0,1-1.3,1.18Z"/><rect class="cls-1" x="21.73" y="5.35" width="2.87" height="0.87" transform="translate(12.22 27.01) rotate(-76.74)"/><rect class="cls-1" x="18.58" y="18.7" width="2.87" height="0.87" transform="translate(-3.19 34.23) rotate(-76.74)"/><rect class="cls-2" x="4.4" y="3.31" width="19.62" height="14.83" rx="2.61" ry="2.61" transform="translate(0.52 22.09) rotate(-76.74)"/><rect class="cls-3" x="5.15" y="4" width="18.12" height="13.45" rx="2.52" ry="2.52" transform="translate(0.52 22.09) rotate(-76.74)"/><path class="cls-4" d="M25,27.88h0A1.25,1.25,0,0,0,26.46,27l.26-1.11-1.22-.29Z"/><path class="cls-4" d="M20.9,20.51,24.57,4.94a.84.84,0,0,1,.54-.61L31.8,2.24a.33.33,0,0,1,.38.43L26.7,25.94a.34.34,0,0,1-.54.22L21.11,21.3A.82.82,0,0,1,20.9,20.51Z"/><polygon class="cls-4" points="24.41 26.37 26.37 26.24 24.89 23.77 24.41 26.37"/><polygon class="cls-4" points="30.32 1.27 32.02 2.26 29.59 3.81 30.32 1.27"/><path class="cls-4" d="M31.49.16h0a1.25,1.25,0,0,1,.93,1.51l-.28,1.19-1.22-.29Z"/><path class="cls-2" d="M19.71,21.51,24,3.52a1,1,0,0,1,.56-.72L31.32.17c.25-.09.45.17.38.48L25.36,27.54c-.07.31-.37.45-.55.26l-4.92-5.4A1,1,0,0,1,19.71,21.51Z"/><path class="cls-5" d="M30.89,1.69,25.1,26.25a.36.36,0,0,1-.61.16l-4.07-4.3a.7.7,0,0,1-.16-.62L24.43,3.81a.68.68,0,0,1,.42-.48l5.56-2.06A.36.36,0,0,1,30.89,1.69Z"/><path class="cls-6" d="M8.34,3.3l-.52-.12.45-1.91.52.12.08-.31L7.15.68A.28.28,0,0,0,6.8.89l-.46,2a.28.28,0,0,0,.21.35l1.72.41ZM6.72,2.52,7,1.36l.93.22L7.65,2.74Z"/><path class="cls-6" d="M5.2,16.64l-.52-.12.45-1.91.52.13.07-.31L4,14a.3.3,0,0,0-.35.22l-.46,2a.29.29,0,0,0,.22.35l1.72.4Zm-1.62-.78.27-1.15.93.22-.27,1.15Z"/><path class="cls-6" d="M32,6.37l.2-.84a.13.13,0,0,0-.07-.15l-1-.52L30.71,6.5l1.12,0A.13.13,0,0,0,32,6.37Z"/><path class="cls-6" d="M28,23.37l.19-.84a.12.12,0,0,0-.07-.15l-1-.52-.39,1.64,1.11,0A.14.14,0,0,0,28,23.37Z"/><rect class="cls-7" x="10.82" y="12.97" width="1.17" height="6.23" transform="translate(-6.87 23.49) rotate(-76.72)"/><polygon class="cls-8" points="8.51 14.8 13.98 17.29 8.24 15.94 8.51 14.8"/><path class="cls-9" d="M13.54,16.59h0a.29.29,0,0,0-.21-.35l-3.95-.93a.29.29,0,0,0-.35.22H9a.29.29,0,0,0,.21.35l3.95.93A.3.3,0,0,0,13.54,16.59Z"/><path class="cls-9" d="M8.55,16l-.31-.07,0-.11.06,0,.25-.32v-.41l-.11-.15,0-.13.31.08a1,1,0,0,1,.06.61A1,1,0,0,1,8.55,16Z"/><path class="cls-9" d="M13.7,17.23a1.11,1.11,0,0,1,.22-1l.1-.1.55.13-.27,1.14Z"/><path class="cls-7" d="M14.2,16.27a1.08,1.08,0,0,1,1.52-.11,1.11,1.11,0,0,1,.36,1l-.71-.62-.62.22-.13.65.7.61a1.09,1.09,0,0,1-1-.22A1.07,1.07,0,0,1,14.2,16.27Z"/><path class="cls-7" d="M7.45,16.14A1,1,0,1,0,6.74,15,1,1,0,0,0,7.45,16.14Zm.21-.27-.39-.14L7,15.4V15l.24-.33.4-.12.38.14.24.34v.4l-.25.33Z"/><path class="cls-8" d="M6.74,15a.94.94,0,0,1,.35-.55l.26.21H7.29L7.05,15v.41l.23.33.39.14.39-.12.25-.33h0l.21.17v.09A1,1,0,0,1,6.74,15Z"/><rect class="cls-7" x="11.06" y="10.93" width="1.08" height="5.76" transform="translate(-4.51 21.92) rotate(-76.72)"/><polygon class="cls-8" points="8.91 12.62 13.98 14.93 8.67 13.67 8.91 12.62"/><path class="cls-9" d="M13.57,14.28h0a.27.27,0,0,0-.2-.33l-3.65-.86a.27.27,0,0,0-.32.2h0a.27.27,0,0,0,.2.33l3.65.86A.27.27,0,0,0,13.57,14.28Z"/><path class="cls-9" d="M9,13.74l-.28-.07,0-.09.05,0,.23-.3v-.38l-.09-.14,0-.12.29.07a.92.92,0,0,1,.06.57A.88.88,0,0,1,9,13.74Z"/><path class="cls-9" d="M13.72,14.87a1,1,0,0,1,.21-.95l.09-.09.5.12L14.28,15Z"/><path class="cls-7" d="M14.18,14a1,1,0,0,1,1.74.81l-.65-.57-.58.2-.12.6.65.57a1,1,0,0,1-1-1.61Z"/><path class="cls-7" d="M7.94,13.86a.89.89,0,1,0-.66-1.07A.89.89,0,0,0,7.94,13.86Zm.19-.25-.36-.13-.21-.31v-.38l.22-.3.37-.11.35.13.22.31v.38l-.23.3Z"/><path class="cls-8" d="M7.28,12.79a.87.87,0,0,1,.33-.5l.23.19h0l-.22.3v.38l.21.31.36.13.36-.11.23-.3h0l.2.15v.09a.89.89,0,0,1-1.63-.65Z"/><rect class="cls-7" x="10.97" y="9.08" width="0.89" height="4.77" transform="translate(-2.37 19.95) rotate(-76.73)"/><polygon class="cls-8" points="9.2 10.49 13.39 12.39 8.99 11.36 9.2 10.49"/><path class="cls-9" d="M13.05,11.86h0a.22.22,0,0,0-.16-.27l-3-.71A.21.21,0,0,0,9.6,11h0a.22.22,0,0,0,.16.27l3,.71A.21.21,0,0,0,13.05,11.86Z"/><path class="cls-9" d="M9.23,11.41,9,11.36l0-.09h0L9.24,11V10.7l-.08-.12,0-.09.24,0a.69.69,0,0,1,.05.47A.73.73,0,0,1,9.23,11.41Z"/><path class="cls-9" d="M13.18,12.35a.82.82,0,0,1,.17-.79l.07-.08.42.1-.2.87Z"/><path class="cls-7" d="M13.56,11.61a.83.83,0,0,1,1.44.67l-.54-.47L14,12l-.1.49.54.48a.88.88,0,0,1-.79-.17A.83.83,0,0,1,13.56,11.61Z"/><path class="cls-7" d="M8.39,11.51a.73.73,0,1,0-.55-.88A.73.73,0,0,0,8.39,11.51Zm.15-.21-.29-.1-.18-.26v-.31l.19-.25.3-.09.29.1.18.26V11l-.19.25Z"/><path class="cls-8" d="M7.84,10.63a.72.72,0,0,1,.27-.42l.2.16h0l-.19.25v.31l.18.26.29.1.3-.09L9,11H9l.17.13v.07a.72.72,0,0,1-.8.35A.73.73,0,0,1,7.84,10.63Z"/><rect class="cls-7" x="10.85" y="7.23" width="0.7" height="3.73" transform="translate(-0.22 17.91) rotate(-76.73)"/><polygon class="cls-8" points="9.47 8.33 12.74 9.82 9.31 9.01 9.47 8.33"/><path class="cls-9" d="M12.48,9.4h0a.16.16,0,0,0-.13-.21L10,8.63a.18.18,0,0,0-.21.13h0A.18.18,0,0,0,9.91,9l2.36.56A.18.18,0,0,0,12.48,9.4Z"/><path class="cls-9" d="M9.49,9.05,9.31,9V8.94h0l.14-.19V8.49L9.45,8.4l0-.07.18,0a.58.58,0,0,1,0,.37A.54.54,0,0,1,9.49,9.05Z"/><path class="cls-9" d="M12.58,9.78a.67.67,0,0,1,.13-.62l.06-.05.33.07-.16.68Z"/><path class="cls-7" d="M12.88,9.2A.64.64,0,0,1,14,9.73l-.42-.37-.38.13-.07.39.42.37a.65.65,0,0,1-.67-1.05Z"/><path class="cls-7" d="M8.83,9.13a.57.57,0,0,0,.69-.43A.56.56,0,0,0,9.1,8a.57.57,0,0,0-.69.43A.59.59,0,0,0,8.83,9.13ZM9,9l-.23-.08-.14-.2V8.44l.15-.2L9,8.17l.23.08.14.2V8.7l-.15.19Z"/><path class="cls-8" d="M8.41,8.44a.58.58,0,0,1,.21-.33l.15.12h0l-.15.2v.24l.14.2L9,9l.23-.07.15-.19h0l.13.1v0a.57.57,0,0,1-.63.28A.59.59,0,0,1,8.41,8.44Z"/><rect class="cls-10" x="11.98" y="5.23" width="1.17" height="0.4" transform="translate(1.23 13.1) rotate(-57.45)"/><path class="cls-7" d="M19.88,9.31,14.29,5.75a1.33,1.33,0,0,1-.6-1.06A1.9,1.9,0,0,0,11.07,3h0l1.12.72a.25.25,0,0,1,.07.35L11,6l1.19.3a4.26,4.26,0,0,1,1.24.53l5.69,3.63a.68.68,0,0,0,.95-.21h0A.69.69,0,0,0,19.88,9.31ZM12.49,6.19l-.64-.41.73-1.14.64.41Zm6.76,4.1a.47.47,0,1,1,.51-.8.47.47,0,1,1-.51.8Z"/><path class="cls-8" d="M19.34,10.56a.69.69,0,0,0,.75-.3h0a.69.69,0,0,0-.21-.95L14.29,5.75l-.14-.11h0Zm.57-.41a.48.48,0,0,1-.66.14.47.47,0,1,1,.51-.8A.48.48,0,0,1,19.91,10.15Z"/><path class="cls-8" d="M11.78,4.83,10.45,4h0a2,2,0,0,0,.88,1.54Z"/><path class="cls-9" d="M18.26,9.67l-4.54-2.9a.48.48,0,0,1-.14-.66h0A.48.48,0,0,1,14.24,6l4.54,2.9a.47.47,0,0,1,.14.66h0A.48.48,0,0,1,18.26,9.67Z"/><path class="cls-11" d="M11.33,5.52l.45-.69-.16-.1-.44.68Z"/><polygon class="cls-12" points="12.53 4.98 12.4 4.92 12.49 4.78 12.6 4.88 12.53 4.98"/><polygon class="cls-12" points="12.41 5.17 12.28 5.11 12.36 4.98 12.47 5.08 12.41 5.17"/><polygon class="cls-12" points="12.29 5.37 12.15 5.31 12.24 5.17 12.35 5.27 12.29 5.37"/><polygon class="cls-12" points="12.16 5.56 12.03 5.5 12.11 5.37 12.22 5.46 12.16 5.56"/><polygon class="cls-12" points="12.04 5.76 11.9 5.7 11.99 5.56 12.1 5.66 12.04 5.76"/><path class="cls-7" d="M13,5.28l-.46-.2a0,0,0,0,1,0-.06h0a0,0,0,0,1,.06,0L13,5.2a0,0,0,0,1,0,.06h0A0,0,0,0,1,13,5.28Z"/><path class="cls-7" d="M12.84,5.48l-.47-.2a0,0,0,0,1,0-.06h0a0,0,0,0,1,.06,0l.46.2a.05.05,0,0,1,0,.07h0A0,0,0,0,1,12.84,5.48Z"/><path class="cls-7" d="M12.71,5.68l-.46-.2s0,0,0-.07h0a.06.06,0,0,1,.07,0l.46.2a0,0,0,0,1,0,.06h0A0,0,0,0,1,12.71,5.68Z"/><path class="cls-7" d="M12.58,5.88l-.46-.21a0,0,0,0,1,0-.06h0a0,0,0,0,1,.06,0l.46.2a0,0,0,0,1,0,.06h0S12.61,5.89,12.58,5.88Z"/><rect class="cls-9" x="12.86" y="4.84" width="0.09" height="0.12" transform="translate(1.83 13.14) rotate(-57.45)"/><rect class="cls-9" x="12.18" y="5.9" width="0.1" height="0.12" transform="matrix(0.54, -0.84, 0.84, 0.54, 0.62, 13.06)"/><rect class="cls-7" x="0.27" y="9.28" width="5.76" height="1.08" transform="translate(-6.41 5.96) rotate(-50.23)"/><polygon class="cls-8" points="0.9 11.69 5.22 8.19 1.73 12.38 0.9 11.69"/><path class="cls-9" d="M4.46,8.26h0a.27.27,0,0,0-.38,0l-2.4,2.89a.27.27,0,0,0,0,.38h0a.28.28,0,0,0,.38,0l2.4-2.88A.27.27,0,0,0,4.46,8.26Z"/><path class="cls-9" d="M1.92,12.15l-.19.23-.08-.06v-.06l-.17-.34-.33-.18-.17,0L.9,11.69l.19-.23a.93.93,0,0,1,.53.21A.91.91,0,0,1,1.92,12.15Z"/><path class="cls-9" d="M5.05,8.39a1,1,0,0,1-.76-.61.56.56,0,0,1,0-.12l.33-.4L5.41,8Z"/><path class="cls-7" d="M4.46,7.58A1,1,0,0,1,6,6.39l-.8.33-.08.6.49.38.8-.33a1,1,0,0,1-.61.76A1,1,0,0,1,4.46,7.58Z"/><path class="cls-7" d="M1.57,13.11a.88.88,0,0,0-.12-1.24A.87.87,0,0,0,.21,12a.88.88,0,0,0,.11,1.25A.89.89,0,0,0,1.57,13.11Zm-.14-.28-.27.27-.38.05L.45,13l-.17-.34.06-.37L.62,12,1,11.94l.33.18.17.34Z"/><path class="cls-8" d="M.32,13.23a.82.82,0,0,1-.3-.52l.27-.12v0L.45,13l.33.18.38-.05.27-.27.06-.37-.17-.34h0L1.55,12l.07.05a.87.87,0,0,1-.05,1A.89.89,0,0,1,.32,13.23Z"/></g></g></svg>