<svg xmlns="http://www.w3.org/2000/svg" viewBox="0 0 296.65 108.19"><defs><style>.cls-1{fill:#acabab;}.cls-2{fill:#3a3b3a;}.cls-3{fill:#595a5a;}.cls-4{fill:#6d6e6e;}.cls-5{fill:#ed2024;}.cls-6{fill:#646464;}.cls-7{fill:#d3d3d3;}.cls-8{fill:#454545;}.cls-9{fill:#bcbcbc;}.cls-10{fill:#898989;}.cls-11{fill:#6b6c6c;}.cls-12{fill:#5c5c5c;}.cls-13{fill:#505050;}.cls-14{fill:#ed3b3a;}.cls-15{fill:#03509a;}.cls-16{fill:#bf8c5e;}.cls-17{fill:#2464b0;}.cls-18{fill:#e0b784;}.cls-19{fill:#d3a879;}.cls-20{fill:#c1822b;}.cls-21{fill:#1b5da1;}.cls-22{fill:#7097c6;}.cls-23{fill:#5e8bb6;}.cls-24{fill:#e02226;}.cls-25{fill:#999797;}.cls-26{fill:#e2e2e2;}.cls-27{fill:#b7b7b8;}.cls-28{fill:#f3757d;}</style></defs><title>decarb-red-car</title><g id="Layer_2" data-name="Layer 2"><g id="Layer_1-2" data-name="Layer 1"><ellipse class="cls-1" cx="272.7" cy="89.26" rx="8.21" ry="1.74"/><rect class="cls-1" x="279.02" y="88.7" width="3.13" height="1.26"/><polygon class="cls-2" points="41.21 57.57 40.01 57.26 49.42 20.88 55.76 7.77 56.87 8.31 50.58 21.31 41.21 57.57"/><path class="cls-3" d="M79,70A16.77,16.77,0,1,0,95.75,86.74,16.77,16.77,0,0,0,79,70ZM89,86.74a9.93,9.93,0,0,1-2.78,6.9l-.61-.8h0L82,88.29a3.52,3.52,0,0,0,.33-1l5.54-1.61h0l1-.28A10.1,10.1,0,0,1,89,86.74ZM69.11,85.39l1,.28h0l5.54,1.61a3.52,3.52,0,0,0,.33,1l-2,2.62-2.11,2.73A9.93,9.93,0,0,1,69,86.74,10.1,10.1,0,0,1,69.11,85.39Zm8.1-8.45.22,6.77a3.33,3.33,0,0,0-.87.61L70.19,82A10,10,0,0,1,77.21,76.94Zm-2,17.94h0l3.24-4.77a3.19,3.19,0,0,0,.53.06,3.07,3.07,0,0,0,.53-.06l3.24,4.77h0l.56.83a9.79,9.79,0,0,1-8.66,0ZM81.4,84.32a3.33,3.33,0,0,0-.87-.61l.22-6.77a10,10,0,0,1,7,5.09Z"/><path class="cls-3" d="M234.48,70a16.77,16.77,0,1,0,16.77,16.77A16.77,16.77,0,0,0,234.48,70Zm10,16.77a9.93,9.93,0,0,1-2.78,6.9l-.61-.8h0l-3.54-4.55a3.52,3.52,0,0,0,.33-1l5.54-1.61h0l1-.28A10.1,10.1,0,0,1,244.45,86.74Zm-19.84-1.35,1,.28h0l5.54,1.61a3.52,3.52,0,0,0,.33,1l-2,2.62-2.11,2.73a9.93,9.93,0,0,1-2.78-6.9A10.1,10.1,0,0,1,224.61,85.39Zm8.1-8.45.22,6.77a3.33,3.33,0,0,0-.87.61L225.69,82A10,10,0,0,1,232.71,76.94Zm-2,17.94h0L234,90.11a3.19,3.19,0,0,0,.53.06,3.07,3.07,0,0,0,.53-.06l3.24,4.77h0l.56.83a9.79,9.79,0,0,1-8.66,0Zm6.19-10.56a3.33,3.33,0,0,0-.87-.61l.22-6.77a10,10,0,0,1,7,5.09Z"/><path class="cls-4" d="M217.8,93.93,223,90.84l38.61-2.55,3.7,2.24L274,76.21s-11.65-18-12.76-18.74-33.4-2-34.68-1.56S201.23,66.52,200.9,67.6s-.78,15.19,0,15.79S217.8,93.93,217.8,93.93Z"/><polygon class="cls-4" points="50.48 94.08 56.66 91.64 93.5 91.64 96.79 95.41 101.6 69.23 78.02 58.58 57.77 59.55 37.91 75.33 41.68 90.84 50.48 94.08"/><path class="cls-5" d="M28.59,92.31S25,72.48,28,63.9c2.8-8.12,52-16.5,75.16-16.5a17.62,17.62,0,0,0,7.42-1.65c9.88-4.56,36.47-16.33,42.87-17.94,8.09-2,47.82-14.16,109.65,14.51a15.42,15.42,0,0,0,5.28,1.4,153.75,153.75,0,0,0,16.75.63,7.78,7.78,0,0,1,5.87,2,3.65,3.65,0,0,1,1.21,2.14s-3.55,7.84,4.44,15.83V78.43a8.84,8.84,0,0,1-7.59,8.74l-23.77,3.36S264,62.25,241,63.15c-25.22,1-23.15,30.78-23.15,30.78l-35.67-.65q-27.43-.5-54.86.75L96.79,95.41s.4-31.17-22.19-31.8c-27.07-.76-24.12,30.47-24.12,30.47S30.22,94.23,28.59,92.31Z"/><path class="cls-6" d="M119.15,49.82c6.19-4.24,30.72-19.65,60.26-19.65l-5.62,17.61-54.3,3A.53.53,0,0,1,119.15,49.82Z"/><path class="cls-6" d="M185.7,30.17l-1.85,17.09,49.2-.79A2.75,2.75,0,0,0,235.44,45l1.21-2.19a2.57,2.57,0,0,0-1.15-3.56C229.57,36.48,212.8,29.94,185.7,30.17Z"/><path class="cls-2" d="M72.87,66.68A20.07,20.07,0,1,0,92.93,86.74,20.07,20.07,0,0,0,72.87,66.68Zm0,32A11.93,11.93,0,1,1,84.8,86.74,11.93,11.93,0,0,1,72.87,98.67Z"/><path class="cls-7" d="M72.87,72A14.71,14.71,0,1,0,87.58,86.74,14.71,14.71,0,0,0,72.87,72Zm0,26.64A11.93,11.93,0,1,1,84.8,86.74,11.93,11.93,0,0,1,72.87,98.67Z"/><path class="cls-8" d="M72.87,67.6A19.15,19.15,0,1,0,92,86.74,19.14,19.14,0,0,0,72.87,67.6Zm0,34.67A15.53,15.53,0,1,1,88.4,86.74,15.53,15.53,0,0,1,72.87,102.27Z"/><path class="cls-9" d="M72.87,73A13.75,13.75,0,1,0,86.62,86.74,13.75,13.75,0,0,0,72.87,73Zm0,25.68A11.93,11.93,0,1,1,84.8,86.74,11.93,11.93,0,0,1,72.87,98.67Z"/><path class="cls-9" d="M77,86.74a4.1,4.1,0,1,1-4.1-4.09A4.1,4.1,0,0,1,77,86.74Z"/><polygon class="cls-7" points="74.71 83.78 71.03 83.78 70.68 72.65 75.06 72.65 74.71 83.78"/><polygon class="cls-9" points="70.79 76.21 71.03 83.78 74.71 83.78 74.94 76.21 70.79 76.21"/><polygon class="cls-7" points="70.61 84.08 69.48 87.57 58.79 84.47 60.15 80.31 70.61 84.08"/><polygon class="cls-9" points="62.21 85.46 69.48 87.57 70.61 84.08 63.49 81.51 62.21 85.46"/><polygon class="cls-7" points="69.64 88.06 72.61 90.22 66.36 99.43 62.82 96.86 69.64 88.06"/><polygon class="cls-9" points="68.36 96.48 72.61 90.22 69.64 88.06 65 94.04 68.36 96.48"/><polygon class="cls-7" points="73.13 90.22 76.1 88.06 82.92 96.86 79.38 99.43 73.13 90.22"/><polygon class="cls-9" points="80.74 94.04 76.1 88.06 73.13 90.22 77.38 96.48 80.74 94.04"/><polygon class="cls-7" points="76.26 87.57 75.12 84.08 85.59 80.31 86.95 84.47 76.26 87.57"/><polygon class="cls-9" points="82.25 81.51 75.12 84.08 76.26 87.57 83.53 85.46 82.25 81.51"/><path class="cls-10" d="M75.63,86.74A2.76,2.76,0,1,1,72.87,84,2.76,2.76,0,0,1,75.63,86.74Z"/><circle class="cls-10" cx="72.87" cy="83.99" r="0.99"/><path class="cls-10" d="M70.55,85a1,1,0,1,1-1.25.63A1,1,0,0,1,70.55,85Z"/><path class="cls-10" d="M70.45,88.39a1,1,0,0,1,1.38-.22,1,1,0,1,1-1.38.22Z"/><path class="cls-10" d="M73.69,89.56a1,1,0,1,1,1.38.22A1,1,0,0,1,73.69,89.56Z"/><path class="cls-10" d="M75.8,86.83a1,1,0,1,1,.64-1.25A1,1,0,0,1,75.8,86.83Z"/><polygon class="cls-7" points="72.53 84.58 72.18 83.98 72.53 83.39 73.21 83.39 73.56 83.98 73.21 84.58 72.53 84.58"/><polygon class="cls-7" points="70.71 86.4 70.03 86.55 69.57 86.03 69.79 85.38 70.46 85.24 70.92 85.75 70.71 86.4"/><polygon class="cls-7" points="71.88 88.69 71.8 89.38 71.18 89.66 70.62 89.25 70.69 88.57 71.32 88.29 71.88 88.69"/><polygon class="cls-7" points="74.42 88.29 75.05 88.57 75.12 89.25 74.56 89.66 73.93 89.38 73.86 88.69 74.42 88.29"/><polygon class="cls-7" points="74.82 85.75 75.28 85.24 75.95 85.38 76.17 86.03 75.7 86.55 75.03 86.4 74.82 85.75"/><path class="cls-2" d="M240.66,66.68a20.07,20.07,0,1,0,20.07,20.06A20.07,20.07,0,0,0,240.66,66.68Zm0,32a11.93,11.93,0,1,1,11.93-11.93A11.93,11.93,0,0,1,240.66,98.67Z"/><path class="cls-7" d="M240.66,72a14.71,14.71,0,1,0,14.71,14.71A14.72,14.72,0,0,0,240.66,72Zm0,26.64a11.93,11.93,0,1,1,11.93-11.93A11.93,11.93,0,0,1,240.66,98.67Z"/><path class="cls-8" d="M240.66,67.6a19.15,19.15,0,1,0,19.15,19.14A19.14,19.14,0,0,0,240.66,67.6Zm0,34.67a15.53,15.53,0,1,1,15.53-15.53A15.53,15.53,0,0,1,240.66,102.27Z"/><path class="cls-9" d="M240.66,73a13.75,13.75,0,1,0,13.75,13.75A13.75,13.75,0,0,0,240.66,73Zm0,25.68a11.93,11.93,0,1,1,11.93-11.93A11.93,11.93,0,0,1,240.66,98.67Z"/><path class="cls-9" d="M244.76,86.74a4.1,4.1,0,1,1-4.1-4.09A4.1,4.1,0,0,1,244.76,86.74Z"/><polygon class="cls-7" points="242.5 83.78 238.82 83.78 238.47 72.65 242.85 72.65 242.5 83.78"/><polygon class="cls-9" points="238.58 76.21 238.82 83.78 242.5 83.78 242.74 76.21 238.58 76.21"/><polygon class="cls-7" points="238.4 84.08 237.27 87.57 226.58 84.47 227.94 80.31 238.4 84.08"/><polygon class="cls-9" points="230 85.46 237.27 87.57 238.4 84.08 231.28 81.51 230 85.46"/><polygon class="cls-7" points="237.43 88.06 240.4 90.22 234.15 99.43 230.61 96.86 237.43 88.06"/><polygon class="cls-9" points="236.15 96.48 240.4 90.22 237.43 88.06 232.79 94.04 236.15 96.48"/><polygon class="cls-7" points="240.92 90.22 243.89 88.06 250.71 96.86 247.17 99.43 240.92 90.22"/><polygon class="cls-9" points="248.53 94.04 243.89 88.06 240.92 90.22 245.17 96.48 248.53 94.04"/><polygon class="cls-7" points="244.05 87.57 242.91 84.08 253.38 80.31 254.74 84.47 244.05 87.57"/><polygon class="cls-9" points="250.03 81.51 242.91 84.08 244.05 87.57 251.32 85.46 250.03 81.51"/><path class="cls-10" d="M243.42,86.74A2.76,2.76,0,1,1,240.66,84,2.76,2.76,0,0,1,243.42,86.74Z"/><circle class="cls-10" cx="240.66" cy="83.99" r="0.99"/><path class="cls-10" d="M238.34,85a1,1,0,1,1-1.25.63A1,1,0,0,1,238.34,85Z"/><path class="cls-10" d="M238.24,88.39a1,1,0,0,1,1.38-.22,1,1,0,1,1-1.38.22Z"/><path class="cls-10" d="M241.48,89.56a1,1,0,1,1,1.38.22A1,1,0,0,1,241.48,89.56Z"/><path class="cls-10" d="M243.59,86.83a1,1,0,1,1,.64-1.25A1,1,0,0,1,243.59,86.83Z"/><polygon class="cls-7" points="240.31 84.58 239.97 83.98 240.31 83.39 241 83.39 241.35 83.98 241 84.58 240.31 84.58"/><polygon class="cls-7" points="238.5 86.4 237.82 86.55 237.36 86.03 237.58 85.38 238.25 85.24 238.71 85.75 238.5 86.4"/><polygon class="cls-7" points="239.67 88.69 239.59 89.38 238.97 89.66 238.41 89.25 238.48 88.57 239.11 88.29 239.67 88.69"/><polygon class="cls-7" points="242.21 88.29 242.84 88.57 242.91 89.25 242.35 89.66 241.72 89.38 241.65 88.69 242.21 88.29"/><polygon class="cls-7" points="242.61 85.75 243.07 85.24 243.74 85.38 243.96 86.03 243.5 86.55 242.82 86.4 242.61 85.75"/><path class="cls-10" d="M31.91,62.13c2.48,5.31,4.28,5.08,8.65,4.53.92-.11,2-.25,3.16-.34C46.5,66.09,51,67.47,57,70.4c.1-.12.21-.23.32-.34-6.14-3-10.73-4.43-13.59-4.19-1.21.1-2.26.24-3.19.35-4.37.55-5.85.74-8.19-4.27-.21-.47-.46-.93-.7-1.39l-.39.22C31.46,61.23,31.7,61.68,31.91,62.13Z"/><path class="cls-11" d="M191.94,29.66s-7.07-.27-14-.07l1.33.92L173.77,48l.45.29,9.12-.48.8-3.83.64-9.57.72-3.53.36-.75,5.55,0Z"/><path class="cls-12" d="M103.17,47.4c-20.09,0-59.65,6.29-71.72,13.25a13.42,13.42,0,0,0,9.79-.09c13.81-5,48.4-8.43,59.77-9.46a2.62,2.62,0,0,0,2.16-3.7Z"/><path class="cls-5" d="M103.17,47.4C90.53,31.79,60.74,5,47.74,0A13.39,13.39,0,0,0,54,7.55c12.57,7.59,37,32.31,45,40.5a2.63,2.63,0,0,0,4.24-.65Z"/><path class="cls-13" d="M235.44,45l1.2-2.17c-16.67-2.73-34.9-3.38-52-3l-.8,7.39,49.2-.79A2.75,2.75,0,0,0,235.44,45Z"/><path class="cls-13" d="M127.73,44.57c-4,2.21-6.93,4.12-8.58,5.25a.53.53,0,0,0,.34,1l54.3-3,2.44-7.63C156.16,41,138.42,43.09,127.73,44.57Z"/><path class="cls-11" d="M183.2,47.85l2-18.25h.51c27.18-.27,44.06,6.33,50.05,9.16a3.14,3.14,0,0,1,1.41,4.36L236,45.31a3.38,3.38,0,0,1-2.89,1.74Zm3-17.1-1.73,15.92L233,45.9a2.23,2.23,0,0,0,1.9-1.14l1.2-2.2a2,2,0,0,0-.89-2.76C229.37,37,212.87,30.59,186.22,30.75Z"/><path class="cls-11" d="M119.1,51.38a1,1,0,0,1-.95-.68,1,1,0,0,1,.38-1.15h0c6.76-4.68,31.13-19.95,60.88-19.95h.79l-6,18.73-55.06,3.05Zm59.52-20.63c-29,.28-53.34,15.6-59,19.45l53.74-3Z"/><path class="cls-14" d="M296.65,78.43V71.21s-10.22,7.7-34.18,7a42.93,42.93,0,0,1,2.82,12.32l23.77-3.36A8.84,8.84,0,0,0,296.65,78.43Z"/><path class="cls-14" d="M220.18,78.21S154.14,88.39,94.25,80h0a52.31,52.31,0,0,1,2.54,15.42L127.27,94q27.42-1.25,54.86-.75l35.67.65a42.21,42.21,0,0,1,2.38-15.72Z"/><path class="cls-14" d="M51.35,80.87S31.68,83.15,27,78.36a135.34,135.34,0,0,0,1.62,14c1.63,1.92,21.89,1.77,21.89,1.77A42.75,42.75,0,0,1,51.6,81.23Z"/><path class="cls-11" d="M258.13,70.87l-.09-.61,20.45-3a25,25,0,0,0,10.4-4.07l4.47-3,.35.51-4.47,3.05a25.87,25.87,0,0,1-10.65,4.17Z"/><path class="cls-1" d="M18.28,97.29,18,98.57a25,25,0,0,1-2.58.67c-.26,0-3.62-.56-3.47-1a28.49,28.49,0,0,1,2.12-2.79s2.22-1,2.46-.82,1.74,2.07,1.74,2.07Z"/><path class="cls-1" d="M10.83,103.21l.17-1.45H5.87L5.73,103s.1,1.7.37,1.7,4.44-.17,4.44-.17Z"/><path class="cls-2" d="M23.67,101.65a1.7,1.7,0,0,0-1.12-.73l-2.65-.19A2.63,2.63,0,0,1,18.49,99l-.17-.58h-.1a8.18,8.18,0,0,1-5.62-1.68l0,0-.58.43-.88,4.53,3.67,1.08.19-.94,1.26.38-.18.94,2.39.35,5.18-.08a2.83,2.83,0,0,0,.31-.87A7.05,7.05,0,0,0,23.67,101.65Z"/><path class="cls-15" d="M48.51,39.38l14.8,6.44,10.12,8.34-4.67.65-9.34-4.59S42.19,48.06,42.24,47.4,48.51,39.38,48.51,39.38Z"/><path class="cls-15" d="M19.58,49.18l4.64,26.91a3.18,3.18,0,0,1,0,1.19L19.32,97.35l-6.88-.81L15.8,74.49,6.91,48.33l8.58-8.8Z"/><path class="cls-16" d="M55.55,36.48l-5.28.7L50,46.87l7.72-2a56.77,56.77,0,0,0,1-6A35.52,35.52,0,0,0,55.55,36.48Z"/><polygon class="cls-15" points="50.1 35.93 52.53 36.48 52.07 42.76 50.47 42.13 48.64 37.2 50.1 35.93"/><path class="cls-17" d="M51.64,39.44A5.13,5.13,0,0,0,48.9,35a16,16,0,0,0-6.16-1.83l-8.49-.72a49.07,49.07,0,0,0-18.42,2l-6,1.85C6.13,37.42,2.35,38.83.49,44.75A13.57,13.57,0,0,0,.84,52.9l.31.69a45.64,45.64,0,0,1,2.57,10L4.78,77.71,4,102.28h8.49L16,77.78,15.29,55c-.06-.66,0-3.09.68-3.3l.68,1.3L24,50.88a19.13,19.13,0,0,1,5.68-.71l12.19.32a10.41,10.41,0,0,0,4.47-.88l4.5-2L51.71,42Z"/><path class="cls-18" d="M65.24,35.76a6.4,6.4,0,0,0-8.9-1.65,6.5,6.5,0,0,0-1.9,2h0a1.7,1.7,0,0,0-.44.92,6.38,6.38,0,0,0-.42,2.66,13.54,13.54,0,0,1-.43,2.5c-.66,1.74,0,5.78,1.75,6.06,2.24.36,6.83-2.44,8.48-3.51l.22-.13.07-.06.32-.21,0,0A6.38,6.38,0,0,0,65.24,35.76Z"/><path class="cls-19" d="M66.35,39.8l-1.18-3.87-6.09,3s-1.14,5.44-4.4,8.25a4.5,4.5,0,0,0-.61.64,1.45,1.45,0,0,0,.83.48c2.24.36,6.83-2.44,8.48-3.51l.22-.13.07-.06.32-.21,0,0A6.33,6.33,0,0,0,66.35,39.8Z"/><path class="cls-17" d="M55.45,34.09l8.31,11.08a9,9,0,0,0,4-7.26C68,32.88,60.3,29.24,55.45,34.09Z"/><path class="cls-17" d="M64.85,44.33l3.62,5.56a1.55,1.55,0,0,1,.19,1.32l-.15.48-4.75-6.52Z"/><path class="cls-8" d="M11.11,103l.27.52a2.22,2.22,0,0,0,1.68,1.24l2.64.3a1.82,1.82,0,0,1,1,.48l.29.28a2.18,2.18,0,0,1,.64,1.59v.83H9.78v-1H8.49v1H4.76v-4.66l.47-.58h0a7.7,7.7,0,0,0,5.57.11Z"/><path class="cls-20" d="M40.94,33.06a3.6,3.6,0,0,1,.36,2.87,37.94,37.94,0,0,0-11.91-.5s.52-2.65-.3-3.1S40.94,33.06,40.94,33.06Z"/><path class="cls-21" d="M10.77,102.28h1.75L16,77.78,15.29,55c-.06-.66,0-3.09.68-3.3l.68,1.3L24,50.88a19.13,19.13,0,0,1,5.68-.71l12.19.32a10.41,10.41,0,0,0,4.47-.88l4.5-2,.77-5.26-.08-.24s-16,3.37-23.51,4S12,46,10.31,48.85s2.76,29.25,2.61,29.82S10.77,102.28,10.77,102.28Z"/><path class="cls-18" d="M70.36,54.56l2.37.27.31-.27a1.25,1.25,0,0,1,.82-.31h.71a1.23,1.23,0,0,1,.57.14l1.18.64,1.64.13a1.32,1.32,0,0,1,1.08.75l.22.45a.77.77,0,0,1-.18.87l-1.37,1.23a2.15,2.15,0,0,1-1.59.54l-1.86-.14a2.84,2.84,0,0,1-.9-.23l-1.22-.54A3.88,3.88,0,0,0,71,57.8l-2.52-.25Z"/><path class="cls-22" d="M41.68,45.56l8.78,7.76a6.14,6.14,0,0,0,2.82,1.42L69,58.06a1.57,1.57,0,0,0,1.14-.2l.8-.49a2.22,2.22,0,0,0,.94-2.6h0a2,2,0,0,0-1.34-1.29L57.41,49.63a4.2,4.2,0,0,1-2.61-2.2l-1.51-3.1-1.72-2.21A6.72,6.72,0,0,0,47,39.58l-1.79-.18a3.51,3.51,0,0,0-2.35.62l-.84.57A3.17,3.17,0,0,0,41.68,45.56Z"/><path class="cls-23" d="M70.16,57.86l.8-.49a2.16,2.16,0,0,0,.93-1.16s-1,1.21-7.58,0S50.77,51.4,49.1,50.7s-1.36.22-1.36.22h0l2.72,2.4a6.14,6.14,0,0,0,2.82,1.42L69,58.06A1.57,1.57,0,0,0,70.16,57.86Z"/><path class="cls-24" d="M292.21,48.52s2.4,10.63,1.38,11.94-3.9-2-3.9-6S288.75,48.52,292.21,48.52Z"/><path class="cls-25" d="M34.88,88.06H30.05V82.63h4.83a2.71,2.71,0,0,1,2.71,2.72h0A2.71,2.71,0,0,1,34.88,88.06Z"/><path class="cls-26" d="M27.4,66.18l13.68-1.27-.22,1a9.18,9.18,0,0,1-2.49,4.58l-1.3,1.3a6.5,6.5,0,0,1-4.61,1.91H26.82A15,15,0,0,1,27.4,66.18Z"/><path class="cls-27" d="M31.77,67.88h0a5.83,5.83,0,0,1,0,3.31v0h2.69A2.25,2.25,0,0,0,36,70.56l.09-.09a1,1,0,0,0,.27-.65v-.61a1,1,0,0,0-.27-.65l-.06,0a2.19,2.19,0,0,0-1.58-.65Z"/><path class="cls-28" d="M268.34,48.74,99.81,54.25,82,55.29l15.55,1.85a38,38,0,0,0,5.74.26l152.08-4.78a19.83,19.83,0,0,0,6.77-1.41Z"/><path class="cls-11" d="M218.35,57.34l-7.77.14a2.6,2.6,0,0,1-2.65-2.56h0a2.6,2.6,0,0,1,2.56-2.65l7.76-.14a2.62,2.62,0,0,1,2.66,2.56h0A2.6,2.6,0,0,1,218.35,57.34Z"/><path class="cls-5" d="M221,55.58a2.6,2.6,0,0,0,.14-.84v-.09a2.49,2.49,0,0,0-.21-.95l-4.19-.39-8.78.59a2.18,2.18,0,0,0-.12.77v.1a2.54,2.54,0,0,0,.25,1.06l8.69.34Z"/><path class="cls-11" d="M216.74,56.94l-.43-.13c.75-2.47,0-3.69,0-3.7l.37-.24C216.7,52.92,217.55,54.25,216.74,56.94Z"/><path class="cls-11" d="M166.56,57.85l-7.76.34a2.61,2.61,0,0,1-2.72-2.49h0A2.61,2.61,0,0,1,158.57,53l7.76-.34a2.61,2.61,0,0,1,2.72,2.49h0A2.61,2.61,0,0,1,166.56,57.85Z"/><path class="cls-5" d="M169.12,56a2.37,2.37,0,0,0,.11-.84v-.1a2.7,2.7,0,0,0-.23-.94l-4.2-.28-8.77.81a2.53,2.53,0,0,0-.1.78v.1a2.48,2.48,0,0,0,.28,1.05l8.69.12Z"/><path class="cls-11" d="M164.94,57.49l-.43-.12c.68-2.49-.11-3.69-.12-3.7l.37-.25S165.68,54.78,164.94,57.49Z"/><path class="cls-11" d="M111.33,89.91a2.73,2.73,0,0,1-2.72-2.73V64.81a10.4,10.4,0,0,1,3.15-7.43l6.79-7.62.46.41-6.81,7.64a9.81,9.81,0,0,0-3,7V87.18a2.1,2.1,0,0,0,2.1,2.11h.06l63.35-1.54,0,.62L111.4,89.91Z"/><path class="cls-11" d="M179,47.58l-.82-.36-4.09,9.43a8.66,8.66,0,0,0-.71,3.82c.45,10.5.56,22.12-.19,28h.88c.92-7.24.48-21.32.2-28.07a7.61,7.61,0,0,1,.64-3.42Z"/><path class="cls-11" d="M207.61,88.58h0l-33.86-.22v-.62l33.85.22h0a3.3,3.3,0,0,0,3.21-2.51L212,80.71a39.6,39.6,0,0,1,7.13-14.88L234.24,46l.49.38L219.59,66.21a39,39,0,0,0-7,14.65l-1.15,4.73A3.9,3.9,0,0,1,207.61,88.58Z"/></g></g></svg>