<svg xmlns="http://www.w3.org/2000/svg" xmlns:xlink="http://www.w3.org/1999/xlink" viewBox="0 0 60.77 39.2"><defs><style>.cls-1{fill:#fff;stroke:#000;stroke-miterlimit:10;stroke-width:0.15px;}.cls-2{fill:url(#linear-gradient);}.cls-3{fill:url(#linear-gradient-2);}.cls-4{fill:#040305;}.cls-5{fill:url(#linear-gradient-3);}.cls-6{fill:url(#linear-gradient-4);}.cls-7{fill:url(#linear-gradient-5);}.cls-8{fill:url(#linear-gradient-6);}.cls-9{fill:url(#linear-gradient-7);}.cls-10{fill:url(#linear-gradient-8);}.cls-11{fill:url(#linear-gradient-9);}</style><linearGradient id="linear-gradient" x1="4.7" y1="20.26" x2="48.83" y2="20.26" gradientUnits="userSpaceOnUse"><stop offset="0.02" stop-color="#4e4e4e"/><stop offset="0.52" stop-color="#858585"/><stop offset="0.64" stop-color="#7d7d7d"/><stop offset="0.84" stop-color="#656565"/><stop offset="1" stop-color="#4e4e4e"/></linearGradient><linearGradient id="linear-gradient-2" x1="9.82" y1="17.85" x2="14.94" y2="17.85" gradientUnits="userSpaceOnUse"><stop offset="0" stop-color="#fff"/><stop offset="0.09" stop-color="#fbfbfc"/><stop offset="0.63" stop-color="#e8e7ea"/><stop offset="1" stop-color="#e1e0e3"/></linearGradient><linearGradient id="linear-gradient-3" x1="10.07" y1="28" x2="13.14" y2="28" gradientUnits="userSpaceOnUse"><stop offset="0" stop-color="#fff"/><stop offset="0.07" stop-color="#ededf0"/><stop offset="0.17" stop-color="#d9d9e0"/><stop offset="0.24" stop-color="#d2d2da"/><stop offset="0.54" stop-color="#e1e1e6"/><stop offset="1" stop-color="#f5f5f5"/></linearGradient><linearGradient id="linear-gradient-4" x1="11.09" y1="10.32" x2="15.19" y2="10.32" gradientUnits="userSpaceOnUse"><stop offset="0.02" stop-color="#4e4e4e"/><stop offset="0.67" stop-color="#858585"/><stop offset="1" stop-color="#4e4e4e"/></linearGradient><linearGradient id="linear-gradient-5" x1="16.84" y1="17.98" x2="56.07" y2="17.98" gradientUnits="userSpaceOnUse"><stop offset="0.01" stop-color="#f8b218"/><stop offset="0.21" stop-color="#f7991c"/><stop offset="0.43" stop-color="#f5861f"/><stop offset="0.58" stop-color="#f57f20"/><stop offset="0.79" stop-color="#f58120"/><stop offset="0.86" stop-color="#f6881f"/><stop offset="0.92" stop-color="#f6931d"/><stop offset="0.96" stop-color="#f7a41a"/><stop offset="0.98" stop-color="#f8b218"/></linearGradient><linearGradient id="linear-gradient-6" x1="26.9" y1="28" x2="29.98" y2="28" xlink:href="#linear-gradient-3"/><linearGradient id="linear-gradient-7" x1="20.65" y1="28" x2="23.73" y2="28" xlink:href="#linear-gradient-3"/><linearGradient id="linear-gradient-8" x1="48.89" y1="28" x2="51.96" y2="28" xlink:href="#linear-gradient-3"/><linearGradient id="linear-gradient-9" x1="43.25" y1="28" x2="46.33" y2="28" xlink:href="#linear-gradient-3"/></defs><title>fuel-truck</title><g id="Layer_2" data-name="Layer 2"><g id="Layer_1-2" data-name="Layer 1"><rect class="cls-1" x="0.08" y="0.08" width="60.62" height="39.04" rx="12.38" ry="12.38"/><path class="cls-2" d="M4.7,21.65V28H7.77a2.11,2.11,0,0,1,0-.26,3.61,3.61,0,0,1,.4-1.46A3.84,3.84,0,0,1,15.45,28s2.2,0,5.71,0h6.26a3.66,3.66,0,0,1,.77-2.27H20.07c.16-.64.33-1.22.48-1.68a5.24,5.24,0,0,0,2.77.8h13c2.89,0,12.52.88,12.52-5.5v-2.4c0-4.41-9.63-4.41-12.52-4.41h-13a5.24,5.24,0,0,0-5.25,5.2v1.91A5.14,5.14,0,0,0,19.38,23c-.2.6-.5,1.57-.77,2.68H16.74V12.53H10.33v1.52L8.28,20.13Z"/><polygon class="cls-3" points="9.82 20.13 11.35 15.57 14.94 15.57 14.94 20.13 9.82 20.13"/><path class="cls-4" d="M8.79,28a2.82,2.82,0,1,0,2.81-2.78A2.8,2.8,0,0,0,8.79,28Z"/><path class="cls-5" d="M10.07,28a1.54,1.54,0,1,1,1.54,1.52A1.53,1.53,0,0,1,10.07,28Z"/><polygon class="cls-6" points="11.1 12.22 13.91 8.41 15.19 9.41 13.15 12.22 11.1 12.22"/><path class="cls-7" d="M56.07,18c0,4.06-3.83,7.34-8.57,7.34H25.42c-4.74,0-8.58-3.28-8.58-7.34h0c0-4.05,3.84-7.34,8.58-7.34H47.5c4.74,0,8.57,3.29,8.57,7.34Z"/><path class="cls-4" d="M55,25.72H20.34c.48.63-1.05,1.13-.34,1.84L40.22,28l14.6-.72Z"/><path class="cls-4" d="M25.62,28a2.82,2.82,0,1,0,2.82-2.78A2.8,2.8,0,0,0,25.62,28Z"/><path class="cls-8" d="M26.9,28a1.54,1.54,0,1,1,1.54,1.52A1.53,1.53,0,0,1,26.9,28Z"/><path class="cls-4" d="M19.37,28a2.82,2.82,0,1,0,2.82-2.78A2.8,2.8,0,0,0,19.37,28Z"/><path class="cls-9" d="M20.65,28a1.54,1.54,0,1,1,1.54,1.52A1.53,1.53,0,0,1,20.65,28Z"/><path class="cls-4" d="M47.61,28a2.82,2.82,0,1,0,2.81-2.78A2.8,2.8,0,0,0,47.61,28Z"/><path class="cls-10" d="M48.89,28a1.54,1.54,0,1,1,1.53,1.52A1.53,1.53,0,0,1,48.89,28Z"/><path class="cls-4" d="M42,28a2.82,2.82,0,1,0,2.82-2.78A2.8,2.8,0,0,0,42,28Z"/><path class="cls-11" d="M43.25,28a1.54,1.54,0,1,1,1.54,1.52A1.53,1.53,0,0,1,43.25,28Z"/></g></g></svg>