<svg width="1275" height="528" viewBox="0 0 1275 528" fill="none" xmlns="http://www.w3.org/2000/svg">
<path fill-rule="evenodd" clip-rule="evenodd" d="M0.000488281 0H874.168L874.17 0.00445858C890.811 -0.117005 907.759 5.89393 920.257 19.6967L929.082 29.4589C934.525 35.476 941.444 40.356 949.331 43.7412C957.218 47.1263 965.874 48.9307 974.664 49.022C983.454 49.1133 992.155 47.4892 1000.13 44.2688C1008.1 41.0485 1015.15 36.3134 1020.74 30.411L1029.78 20.8394C1067.24 -18.5929 1140.63 8.78676 1133.73 59.6159L1132.07 71.9391C1127.7 104.436 1158.78 132.153 1196.15 129.083L1210.35 127.908C1268.81 123.108 1298.52 187.676 1252.42 219.357L1241.22 227.042C1234.32 231.781 1228.72 237.807 1224.84 244.677C1220.96 251.548 1218.89 259.089 1218.79 266.748C1218.69 274.406 1220.56 281.988 1224.26 288.938C1227.96 295.887 1233.4 302.028 1240.18 306.909L1251.17 314.783C1296.44 347.442 1265.06 411.382 1206.72 405.337L1192.58 403.889C1183.85 402.986 1175 403.797 1166.67 406.262C1158.35 408.727 1150.77 412.784 1144.49 418.135C1138.2 423.486 1133.37 429.996 1130.35 437.188C1127.33 444.379 1126.19 452.069 1127.03 459.694L1128.38 472.062C1131.96 504.94 1102.37 527.366 1071.15 528.335L1071.17 528.391H0.000488281V0ZM936.162 166.277L1008.99 361.612C1011.24 360.961 1013.48 360.248 1015.69 359.475L1015.72 359.54C1044.74 349.415 1067.95 329.659 1080.24 304.617C1092.53 279.575 1092.9 251.3 1081.27 226.01C1069.63 200.72 1046.95 180.488 1018.2 169.765C992.126 160.039 963.005 158.858 936.162 166.277Z" fill="#0082BE"/>
</svg>
