<svg width="189" height="178" viewBox="0 0 189 178" fill="none" xmlns="http://www.w3.org/2000/svg">
<path d="M111.097 11.6812C106.218 -3.89375 82.782 -3.89375 77.9034 11.6812L76.7222 15.4637C75.9933 17.7955 74.7194 19.944 72.9941 21.7517C71.2687 23.5595 69.1356 24.9806 66.7512 25.9108C64.3668 26.8411 61.7915 27.2569 59.2142 27.1278C56.637 26.9987 54.1231 26.328 51.8569 25.1648L48.195 23.2735C33.0396 15.5083 16.4666 31.1166 24.7236 45.3789L26.7199 48.8387C31.9883 57.9613 26.9916 69.3199 16.4194 72.2569L12.4031 73.3694C-4.13438 77.964 -4.13438 100.036 12.4031 104.631L16.4194 105.743C18.8952 106.43 21.1765 107.629 23.0959 109.254C25.0154 110.879 26.5243 112.888 27.5121 115.134C28.4998 117.379 28.9413 119.805 28.8043 122.232C28.6672 124.659 27.955 127.027 26.7199 129.161L24.7118 132.61C16.4666 146.883 33.0396 162.492 48.1832 154.715L51.8569 152.835C54.1231 151.672 56.637 151.001 59.2142 150.872C61.7915 150.743 64.3668 151.159 66.7512 152.089C69.1356 153.019 71.2687 154.441 72.9941 156.248C74.7194 158.056 75.9933 160.204 76.7222 162.536L77.9034 166.319C82.782 181.894 106.218 181.894 111.097 166.319L112.278 162.536C113.007 160.204 114.281 158.056 116.006 156.248C117.731 154.441 119.864 153.019 122.249 152.089C124.633 151.159 127.208 150.743 129.786 150.872C132.363 151.001 134.877 151.672 137.143 152.835L140.805 154.727C155.96 162.492 172.533 146.883 164.276 132.621L162.28 129.161C161.045 127.027 160.333 124.659 160.196 122.232C160.059 119.805 160.5 117.379 161.488 115.134C162.476 112.888 163.985 110.879 165.904 109.254C167.824 107.629 170.105 106.43 172.581 105.743L176.597 104.631C193.134 100.036 193.134 77.964 176.597 73.3694L172.581 72.2569C170.105 71.5704 167.824 70.3707 165.904 68.7457C163.985 67.1208 162.476 65.1119 161.488 62.8662C160.5 60.6206 160.059 58.1952 160.196 55.7679C160.333 53.3406 161.045 50.973 162.28 48.8387L164.288 45.39C172.533 31.1166 155.96 15.5082 140.817 23.2846L137.143 25.1648C134.877 26.328 132.363 26.9987 129.786 27.1278C127.208 27.2569 124.633 26.8411 122.249 25.9108C119.864 24.9806 117.731 23.5595 116.006 21.7517C114.281 19.944 113.007 17.7955 112.278 15.4637L111.097 11.6812ZM94.5 121.596C85.3207 121.596 76.5173 118.162 70.0266 112.049C63.5358 105.936 59.8894 97.6451 59.8894 89C59.8894 80.3549 63.5358 72.064 70.0266 65.951C76.5173 59.838 85.3207 56.4038 94.5 56.4038C103.676 56.4038 112.477 59.8368 118.965 65.9477C125.454 72.0586 129.099 80.3468 129.099 88.9889C129.099 97.631 125.454 105.919 118.965 112.03C112.477 118.141 103.676 121.574 94.5 121.574V121.596Z" fill="#ADD8E6"/>
</svg>
