<svg xmlns="http://www.w3.org/2000/svg" xmlns:xlink="http://www.w3.org/1999/xlink" viewBox="0 0 60.77 39.2"><defs><style>.cls-1,.cls-21,.cls-23{fill:#fff;}.cls-1,.cls-23{stroke:#000;stroke-miterlimit:10;}.cls-1{stroke-width:0.15px;}.cls-2{fill:#d0952a;}.cls-3{fill:#024834;}.cls-4{fill:#66c5b1;opacity:0.5;}.cls-5{fill:#213b1b;}.cls-6{fill:#203219;}.cls-29,.cls-30,.cls-6,.cls-7{fill-rule:evenodd;}.cls-10,.cls-11,.cls-7{fill:#f0f9f8;}.cls-8{fill:#172313;}.cls-9{fill:#1f381b;}.cls-11{opacity:0.1;}.cls-12{fill:#eba721;}.cls-13{fill:#089e72;}.cls-14{fill:#016c4c;}.cls-15{fill:#f7c52f;}.cls-16{fill:#006448;}.cls-17{fill:#3cb4db;}.cls-18{fill:#f0b144;}.cls-19{fill:#f0a425;}.cls-20{fill:#03583d;}.cls-22{fill:#de9e26;}.cls-23{stroke-width:0.31px;}.cls-24{fill:url(#linear-gradient);}.cls-25{fill:#231f20;}.cls-26{fill:url(#linear-gradient-2);}.cls-27{fill:url(#linear-gradient-3);}.cls-28{fill:url(#linear-gradient-4);}.cls-29{fill:url(#linear-gradient-5);}.cls-30{fill:#56a245;}</style><linearGradient id="linear-gradient" x1="46.69" y1="15.18" x2="50.76" y2="15.9" gradientUnits="userSpaceOnUse"><stop offset="0" stop-color="#2f71b8"/><stop offset="0.73" stop-color="#2e3393"/><stop offset="0.76" stop-color="#5b5faa"/><stop offset="0.81" stop-color="#8d8fc4"/><stop offset="0.85" stop-color="#b6b7d9"/><stop offset="0.89" stop-color="#d6d7ea"/><stop offset="0.93" stop-color="#ededf5"/><stop offset="0.97" stop-color="#fafafd"/><stop offset="1" stop-color="#fff"/></linearGradient><linearGradient id="linear-gradient-2" x1="47.58" y1="12.87" x2="48.61" y2="12.87" gradientUnits="userSpaceOnUse"><stop offset="0" stop-color="#be2626"/><stop offset="1" stop-color="#ed1c24"/></linearGradient><linearGradient id="linear-gradient-3" x1="47.63" y1="12.68" x2="48.06" y2="13.28" gradientUnits="userSpaceOnUse"><stop offset="0" stop-color="#f39c2e"/><stop offset="0.02" stop-color="#f3952d"/><stop offset="0.16" stop-color="#f1702b"/><stop offset="0.3" stop-color="#f05228"/><stop offset="0.45" stop-color="#ee3a26"/><stop offset="0.61" stop-color="#ee2925"/><stop offset="0.78" stop-color="#ed1f24"/><stop offset="1" stop-color="#ed1c24"/></linearGradient><linearGradient id="linear-gradient-4" x1="48.88" y1="13.24" x2="47.6" y2="12.79" xlink:href="#linear-gradient"/><linearGradient id="linear-gradient-5" x1="-1625.62" y1="-1981.63" x2="-1622.83" y2="-1981.63" gradientTransform="translate(477.04 2538.91) rotate(29.7)" gradientUnits="userSpaceOnUse"><stop offset="0" stop-color="#8c8e90"/><stop offset="1" stop-color="#393839"/></linearGradient></defs><title>rickshawAsset 2</title><g id="Layer_2" data-name="Layer 2"><g id="Layer_1-2" data-name="Layer 1"><rect class="cls-1" x="0.08" y="0.08" width="60.62" height="39.04" rx="12.38" ry="12.38"/><path class="cls-2" d="M50.7,12.7v5.78H39.43V10.69A3.39,3.39,0,0,0,36,7.3H15.18l.28-.4a8.94,8.94,0,0,1,7.25-3.71H41.2a9.55,9.55,0,0,1,2.34.29,9,9,0,0,1,2.19.86,9.48,9.48,0,0,1,5,8.36Z"/><path class="cls-3" d="M50.7,18.48V28.85h-1a2.23,2.23,0,0,1-2-1.29l-.33-.66a.94.94,0,0,0-.84-.55H41a1,1,0,0,0-.86.59l-1,2.22a2.25,2.25,0,0,1-2,1.39H35.44v-6A5.09,5.09,0,0,1,37,20.9l2.48-2.42Z"/><rect class="cls-4" x="30.73" y="6.53" width="0.97" height="9.79"/><path class="cls-5" d="M40.94,31H54.58a.31.31,0,0,0,.31-.31V29.49a.3.3,0,0,0-.31-.3H51L49,27l-5.15-.47Z"/><path class="cls-6" d="M30.4,22.46v2H23.83a.37.37,0,0,1-.35-.51,2.19,2.19,0,0,1,.84-1.07,2.26,2.26,0,0,1,1.3-.41Z"/><polygon class="cls-7" points="30.51 30.55 23.81 30.55 23.84 30.33 24.53 24.45 30.4 24.45 30.51 30.27 30.51 30.55"/><polygon class="cls-3" points="31.7 15.47 31.7 30.86 28.47 30.94 28.51 30.55 28.53 30.32 29.13 24.45 29.33 22.46 30.05 15.47 31.7 15.47"/><ellipse class="cls-8" cx="10.08" cy="32.01" rx="3.99" ry="4.2" transform="translate(-23.17 36.56) rotate(-80.31)"/><ellipse class="cls-9" cx="10.08" cy="32.01" rx="2.82" ry="2.96" transform="translate(-23.17 36.56) rotate(-80.31)"/><path class="cls-10" d="M9,32a1.1,1.1,0,0,0,1.12,1.05A1.06,1.06,0,0,0,11.18,32a1.1,1.1,0,0,0-1.12-1A1.05,1.05,0,0,0,9,32Z"/><path class="cls-3" d="M12.2,25s-3.2.07-4.58,1.34A4.66,4.66,0,0,0,5.89,30s7.68,1.32,9.54.61Z"/><path class="cls-11" d="M11.9,25.31a8.79,8.79,0,0,0-3.26,1.24,4.28,4.28,0,0,0-1.9,2.83c.69.16,1.39.2,2.09.36-.06-.25.18-.48.29-.71a8.28,8.28,0,0,1,1.32-2,4,4,0,0,1,2-1.18A1,1,0,0,0,11.9,25.31Z"/><ellipse class="cls-8" cx="46.78" cy="32.01" rx="3.99" ry="4.2" transform="translate(7.36 72.73) rotate(-80.31)"/><ellipse class="cls-9" cx="46.78" cy="32.01" rx="2.82" ry="2.96" transform="translate(7.36 72.73) rotate(-80.31)"/><path class="cls-10" d="M45.68,32a1.1,1.1,0,0,0,1.12,1.05A1.06,1.06,0,0,0,47.88,32a1.1,1.1,0,0,0-1.12-1A1.05,1.05,0,0,0,45.68,32Z"/><path class="cls-12" d="M53.27,12.7v5.78H42V10.69A3.39,3.39,0,0,0,38.6,7.3H15.33l.29-.4a8.94,8.94,0,0,1,7.25-3.71H43.76A9.51,9.51,0,0,1,53.27,12.7Z"/><path class="cls-13" d="M53.27,18.48V30h-1.6a2.25,2.25,0,0,1-2-1.21l-.33-.61a.93.93,0,0,0-.84-.51h-4a1,1,0,0,0-.87.54l-1,2.08a2.25,2.25,0,0,1-2,1.3H38V24.14a4.6,4.6,0,0,1,1.51-3.4L42,18.48Z"/><path class="cls-14" d="M53.27,18.48v9.68h-1a2.26,2.26,0,0,1-2-1.2l-.32-.62a1,1,0,0,0-.85-.51H43.6a1,1,0,0,0-.87.55l-1,2.07a2.26,2.26,0,0,1-2,1.3H38V24.14a4.6,4.6,0,0,1,1.51-3.4L42,18.48Z"/><path class="cls-15" d="M20.79,7.3s-3.12,3.53-3.12,10.79H10.08a17.73,17.73,0,0,1,.44-2l.1-.37c.16-.54.36-1.14.6-1.78l.09-.25a2.44,2.44,0,0,0,.1-.24,2.6,2.6,0,0,0,.1-.25L11.6,13l.09-.2c.09-.21.19-.42.29-.63l.12-.24s.05-.09.07-.14l.11-.21a18.53,18.53,0,0,1,1-1.69l.16-.24.11-.16.13-.19.12-.17L13.92,9l.21-.27.19-.24.15-.19c.27-.32.56-.64.86-1Z"/><path class="cls-16" d="M38,30v1.59H17.78a5,5,0,0,1-4.08-2.15,22,22,0,0,1-2.3-4.34c-.17-.46-.34-.95-.49-1.45A19.88,19.88,0,0,1,10.3,21c-.09-.61-.16-1.25-.2-1.9,0-.11,0-.21,0-.32s0-.46,0-.69h7.59s0,.26,0,.69c0,.1,0,.2,0,.32-.05,2.74,0,10.21,2.24,10.88a18.71,18.71,0,0,0,4,.35c1.42,0,3.05,0,4.69,0l2-.05,1.19,0c1.39,0,2.69-.09,3.74-.14C37,30,38,30,38,30Z"/><path class="cls-3" d="M17.39,10.46l-1.34,3.66a3,3,0,0,1-2.81,2H10.52l.1-.37a21.17,21.17,0,0,1,3.7-7.28l.15-.19h1.38A1.65,1.65,0,0,1,17.39,10.46Z"/><path class="cls-17" d="M17,10.49,15.7,13.9a2.87,2.87,0,0,1-1.52,1.56,2.67,2.67,0,0,1-.85.23h0a2.38,2.38,0,0,1-.39,0H10.62a21.17,21.17,0,0,1,3.7-7.28H15.5a1.63,1.63,0,0,1,1.33.66,1.55,1.55,0,0,1,.19.36A1.41,1.41,0,0,1,17,10.49Z"/><path class="cls-4" d="M16.32,8.65l-3.7,7.07H10.84l4.45-7.28h.21A1.69,1.69,0,0,1,16.32,8.65Z"/><path class="cls-4" d="M17,9.46l-2.84,6a2.67,2.67,0,0,1-.85.23c.59-1.1,3-5.68,3.5-6.59A1.55,1.55,0,0,1,17,9.46Z"/><rect class="cls-18" x="51.74" y="20.48" width="1.53" height="4.54"/><rect class="cls-19" x="51.74" y="20.48" width="1.53" height="3.01"/><path class="cls-20" d="M50.11,21.06H41.94a.28.28,0,0,1-.28-.29h0a.28.28,0,0,1,.28-.29h8.17a.29.29,0,0,1,.29.29h0A.29.29,0,0,1,50.11,21.06Z"/><path class="cls-20" d="M50.11,23h-9.6a.29.29,0,0,1-.29-.29h0a.29.29,0,0,1,.29-.29h9.6a.29.29,0,0,1,.29.29h0A.29.29,0,0,1,50.11,23Z"/><path class="cls-20" d="M50.11,25h-11a.29.29,0,0,1-.28-.29h0a.29.29,0,0,1,.28-.28h11a.29.29,0,0,1,.29.28h0A.29.29,0,0,1,50.11,25Z"/><path class="cls-19" d="M10,21v3a1.51,1.51,0,0,0,0-3Z"/><path class="cls-21" d="M9.82,21H10a0,0,0,0,1,0,0v3a0,0,0,0,1,0,0H9.82a.58.58,0,0,1-.58-.58V21.54A.58.58,0,0,1,9.82,21Z"/><path class="cls-22" d="M20.45,4a5,5,0,0,1,2.45-.5H44.41c1.3,0,2.43.36,2.73.88h0Z"/><rect class="cls-15" x="43.82" y="10.02" width="7.91" height="6.81" rx="0.94" ry="0.94"/><rect class="cls-8" x="53.93" y="29.19" width="0.24" height="1.75"/><polygon class="cls-3" points="14.5 24.56 14.89 24.56 14.89 26.95 14.6 26.95 14.5 24.56"/><polygon class="cls-3" points="15.24 24.56 15.63 24.56 15.63 26.95 15.34 26.95 15.24 24.56"/><polygon class="cls-3" points="15.97 24.56 16.37 24.56 16.37 26.95 16.05 26.95 15.97 24.56"/><path class="cls-3" d="M17.65,18.78c0,.1,0,.2,0,.32H10.1c0-.11,0-.21,0-.32Z"/><rect class="cls-23" x="45.74" y="10.88" width="4.07" height="5.19" rx="0.41" ry="0.41"/><path class="cls-24" d="M45.85,14.85h3.86a0,0,0,0,1,0,0v.73a.38.38,0,0,1-.38.38H46.24a.38.38,0,0,1-.38-.38v-.73A0,0,0,0,1,45.85,14.85Z"/><path class="cls-1" d="M46.26,15.2h-.11v.34s0,0,0,0l0,0,0,0s0,0,0,0V15.2h-.14a.05.05,0,0,1,0-.06h.37a.05.05,0,0,1,0,.06Z"/><path class="cls-1" d="M46.56,15.44h-.17a.07.07,0,0,0,0,.05l0,0h.07l0,0h0l0,0h0a0,0,0,0,1,0,0v0s0,0,0,0l0,0h-.07a.19.19,0,0,1-.13,0,.18.18,0,0,1,0-.13.15.15,0,0,1,0-.07l0-.06s0,0,.06,0l.07,0a.11.11,0,0,1,.08,0,.1.1,0,0,1,.06.05.19.19,0,0,1,0,.07s0,0,0,0Zm-.17,0h.15a.08.08,0,0,0,0-.06.06.06,0,0,0-.06,0,.05.05,0,0,0-.05,0A.08.08,0,0,0,46.39,15.39Z"/><path class="cls-1" d="M47,15.49a0,0,0,0,1,0,0l0,0,0,0h-.07a.17.17,0,0,1-.12,0,.17.17,0,0,1,0-.13.29.29,0,0,1,0-.09.19.19,0,0,1,.16-.09h.06l0,0,0,0a.05.05,0,0,1,0,0l0,0s0,0,0,0h0l0,0,0,0h0a.09.09,0,0,0-.06,0,.19.19,0,0,0,0,.08.09.09,0,0,0,0,.05v0l0,0h.08l0,0,0,0h0A0,0,0,0,1,47,15.49Z"/><path class="cls-1" d="M47.15,15.17v.13a.05.05,0,0,1,0,0l0,0h0l.06,0a.08.08,0,0,1,0,0,0,0,0,0,1,0,0s0,0,0,.05v.16a.05.05,0,0,1,0,0s0,0,0,0,0,0,0-.06V15.4s0-.05,0-.07l-.05,0h0l0,0a.56.56,0,0,0,0,.07v.11s0,0,0,0l0,0s0,0,0-.06v-.37s0,0,0,0h.06S47.15,15.15,47.15,15.17Z"/><path class="cls-1" d="M47.62,15.52l-.07-.3v.32s0,0,0,0l0,0,0,0s0,0,0,0v-.36a.08.08,0,0,1,0,0h.11l0,0a.1.1,0,0,0,0,0l.07.25.06-.25s0,0,0,0v0h.12a.07.07,0,0,1,0,0v.36s0,0,0,0l0,0s0,0,0,0a.05.05,0,0,1,0,0v-.32l-.07.3s0,0,0,0l0,0h-.06l0,0v-.05Z"/><path class="cls-1" d="M48.24,15.44h-.17a.08.08,0,0,0,0,.05s0,0,0,0h.07l0,0h0l0,0h0a0,0,0,0,1,0,0v0l0,0,0,0h-.07a.19.19,0,0,1-.13,0,.18.18,0,0,1,0-.13.15.15,0,0,1,0-.07s0,0,0-.06a.09.09,0,0,1,0,0l.07,0a.12.12,0,0,1,.09,0s0,0,.06.05a.17.17,0,0,1,0,.07s0,0,0,0Zm-.17,0h.16a.08.08,0,0,0,0-.06.09.09,0,0,0-.06,0,.05.05,0,0,0,0,0A.16.16,0,0,0,48.07,15.39Z"/><path class="cls-1" d="M48.47,15.47v.07s0,0,0,0l0,0,0,0s0,0,0,0V15.3s0-.06,0-.06l0,0s0,0,0,0l0,0,0,0,.05,0s0,0,0,0a0,0,0,0,1,0,0H48.5l0,0v.05S48.47,15.45,48.47,15.47Z"/><path class="cls-1" d="M49,15.31v.25a.15.15,0,0,1,0,.07.12.12,0,0,1-.08.08h-.16l0,0a0,0,0,0,1,0,0,0,0,0,0,1,0,0h0a.05.05,0,0,1,0,0v0h.12l0,0a.08.08,0,0,1,0,0v-.06l0,0-.06,0-.08,0-.05-.07a.22.22,0,0,1,0-.09.17.17,0,0,1,0-.07.05.05,0,0,1,0-.05.05.05,0,0,1,0,0h.12a.1.1,0,0,1,0,0h0v0l0,0a.05.05,0,0,1,0,0Zm-.25.11a.11.11,0,0,0,0,.08s0,0,.06,0h0l0,0a.13.13,0,0,0,0-.06.19.19,0,0,0,0-.08.09.09,0,0,0-.07,0,.05.05,0,0,0,0,0A.1.1,0,0,0,48.72,15.42Z"/><path class="cls-1" d="M49.29,15.44h-.17a.07.07,0,0,0,0,.05l0,0h.07l0,0h0l0,0h0a0,0,0,0,1,0,0v0l0,0,0,0H49.2a.21.21,0,0,1-.13,0,.18.18,0,0,1,0-.13.15.15,0,0,1,0-.07l0-.06s0,0,.06,0l.07,0,.09,0a.12.12,0,0,1,.05.05.19.19,0,0,1,0,.07s0,0,0,0Zm-.17,0h.15a.08.08,0,0,0,0-.06.05.05,0,0,0,0,0,.07.07,0,0,0-.06,0A.08.08,0,0,0,49.12,15.39Z"/><path class="cls-1" d="M49.52,15.47v.07a.05.05,0,0,1,0,0s0,0,0,0l0,0s0,0,0,0V15.3s0-.06,0-.06,0,0,0,0,0,0,0,0l0,0,0,0,0,0,0,0s0,0,0,0h-.11l0,0a.07.07,0,0,0,0,.05Z"/><path class="cls-25" d="M49.18,11.17h0v0h.13v0H49.2v.15h0Z"/><path class="cls-25" d="M49.42,11.25v-.08h0a.14.14,0,0,0,0,.07l0,.08h0l0-.08s0-.05,0-.07h0v.15h0v-.17h0l0,.08,0,.06h0s0,0,0-.06l0-.08h0v.17h0Z"/><path class="cls-26" d="M48.33,12.23h-.5a.26.26,0,0,0-.25.26h.16a0,0,0,0,1,0,0v1H48v-.95a.06.06,0,0,1,.05-.06h.25a.26.26,0,0,0,.26-.26Z"/><path class="cls-27" d="M47.78,13.5H48v-.86h0a.27.27,0,0,0-.27.27Z"/><path class="cls-28" d="M48.67,12.66a.26.26,0,0,0-.19-.08.28.28,0,0,0-.13,0,.31.31,0,0,0-.1.1.22.22,0,0,0-.2-.13h0a.26.26,0,0,0-.19.08.27.27,0,0,0-.07.2v.05a.27.27,0,0,1,.27-.27v.21h.06s0,0,0,.06v.58h.27v-.59s0-.06,0-.06h0v.64h.27v-.62A.34.34,0,0,0,48.67,12.66Z"/><path class="cls-29" d="M46.88,11.86l-.18.31.31.29c.06.07,0,.06,0,.24s0,.12,0,.14a.45.45,0,0,1-.14.06l-.28.12a2.21,2.21,0,0,0,.08.37c.08,0,.42,0,.46,0s.15.15.21.23,0,.08,0,.16-.07.23-.11.35l.31.18c.1-.07.23-.28.33-.37a.75.75,0,0,1,.21,0c.14,0,.12,0,.26.27,0,.05.07.14.1.18s.24-.12.3-.13v0s0-.09,0-.14-.11-.42-.14-.47a1.16,1.16,0,0,1-1-.15A.9.9,0,0,1,48,11.94l.11,0a.06.06,0,0,0,.06,0s0-.09.06-.14.06-.07.05-.08h-.12s-.22-.37-.23-.39h0a2.21,2.21,0,0,1-.33.05,1.87,1.87,0,0,0,0,.41c0,.06,0,0,0,.09l-.24.18Z"/><path class="cls-30" d="M48.87,11.4h0l0,0-.06,0,0,0-.07,0-.06,0,0,0a.61.61,0,0,0-.18.1v0a.35.35,0,0,0-.09.42.66.66,0,0,0,0-.11l.06-.07,0,0,0,0,0,0,.05,0,0,0,.1,0h0a.83.83,0,0,0,.17-.15l0,0h0a.48.48,0,0,1-.13.16l-.05.05-.08.05,0,0,0,0,0,0a.3.3,0,0,0-.13.12.41.41,0,0,0-.09.2.56.56,0,0,0,.18,0h.09a.38.38,0,0,0,.19-.09h0a.52.52,0,0,0,.18-.35,1,1,0,0,0,0-.43Z"/></g></g></svg>