<svg width="1274" height="528" viewBox="0 0 1274 528" fill="none" xmlns="http://www.w3.org/2000/svg">
<path fill-rule="evenodd" clip-rule="evenodd" d="M1274.06 0H400.535L400.534 0.00456639C383.905 -0.116927 366.97 5.88954 354.48 19.6822L345.662 29.4372C340.223 35.4498 333.309 40.3263 325.428 43.7089C317.547 47.0915 308.897 48.8946 300.114 48.9858C291.33 49.0771 282.636 47.4542 274.668 44.2362C266.7 41.0182 259.661 36.2867 254.067 30.3886L245.043 20.8241C207.611 -18.579 134.267 8.78036 141.169 59.5719L142.822 71.886C147.195 104.359 116.135 132.055 78.7881 128.988L64.6048 127.813C6.18462 123.017 -23.4998 187.537 22.5618 219.195L33.7527 226.874C40.6505 231.609 46.2435 237.631 50.1215 244.496C53.9996 251.362 56.0644 258.897 56.1644 266.55C56.2645 274.203 54.3974 281.78 50.7 288.724C47.0025 295.668 41.5686 301.804 34.7966 306.682L23.8148 314.55C-21.4272 347.185 9.93416 411.078 68.2303 405.037L82.3638 403.59C91.087 402.688 99.9304 403.498 108.245 405.961C116.56 408.424 124.136 412.478 130.417 417.826C136.699 423.173 141.526 429.678 144.545 436.864C147.564 444.05 148.698 451.734 147.865 459.354L146.509 471.713C142.937 504.566 172.506 526.976 203.701 527.944L203.68 528H1274.06V0ZM338.588 166.154L265.815 361.344C263.563 360.693 261.328 359.982 259.114 359.209L259.084 359.274C230.087 349.157 206.896 329.415 194.614 304.392C182.331 279.369 181.963 251.114 193.589 225.843C205.216 200.572 227.886 180.355 256.611 169.64C282.665 159.921 311.765 158.741 338.588 166.154Z" fill="#0082BE"/>
</svg>
