<svg xmlns="http://www.w3.org/2000/svg" xmlns:xlink="http://www.w3.org/1999/xlink" viewBox="0 0 60.77 39.2"><defs><style>.cls-1{fill:#fff;stroke:#000;stroke-miterlimit:10;stroke-width:0.15px;}.cls-2{fill:url(#linear-gradient);}.cls-3{fill:url(#linear-gradient-2);}.cls-4{fill:url(#linear-gradient-3);}.cls-5{fill:url(#linear-gradient-4);}.cls-6{fill:url(#linear-gradient-5);}.cls-7{fill:url(#linear-gradient-6);}.cls-8{fill:url(#radial-gradient);}.cls-9{fill:url(#linear-gradient-7);}.cls-10{fill:url(#radial-gradient-2);}.cls-11{fill:url(#linear-gradient-8);}.cls-12{fill:url(#linear-gradient-9);}.cls-13{fill:url(#linear-gradient-10);}</style><linearGradient id="linear-gradient" x1="39.75" y1="28.17" x2="47.88" y2="28.17" gradientUnits="userSpaceOnUse"><stop offset="0.31" stop-color="#404040"/><stop offset="0.83" stop-color="#404040"/></linearGradient><linearGradient id="linear-gradient-2" x1="42.04" y1="28.17" x2="45.6" y2="28.17" gradientUnits="userSpaceOnUse"><stop offset="0" stop-color="#fff"/><stop offset="0.07" stop-color="#ededf0"/><stop offset="0.17" stop-color="#d9d9e0"/><stop offset="0.24" stop-color="#d2d2da"/><stop offset="0.54" stop-color="#e1e1e6"/><stop offset="1" stop-color="#f5f5f5"/></linearGradient><linearGradient id="linear-gradient-3" x1="6.4" y1="27.51" x2="8.63" y2="27.51" gradientUnits="userSpaceOnUse"><stop offset="0" stop-color="#404040"/><stop offset="0.02" stop-color="#5c5c5c"/><stop offset="0.05" stop-color="#7f7f7f"/><stop offset="0.07" stop-color="#8c8c8c"/><stop offset="0.1" stop-color="#7b7b7b"/><stop offset="0.15" stop-color="#5c5c5c"/><stop offset="0.21" stop-color="#404040"/><stop offset="0.28" stop-color="#2a2a2a"/><stop offset="0.36" stop-color="#191919"/><stop offset="0.46" stop-color="#0e0e0e"/><stop offset="0.61" stop-color="#070707"/><stop offset="1" stop-color="#050505"/></linearGradient><linearGradient id="linear-gradient-4" x1="19.63" y1="27.51" x2="21.33" y2="27.51" xlink:href="#linear-gradient-3"/><linearGradient id="linear-gradient-5" x1="21.79" y1="28.17" x2="38.85" y2="28.17" xlink:href="#linear-gradient-3"/><linearGradient id="linear-gradient-6" x1="37.75" y1="5.54" x2="38.45" y2="29.77" xlink:href="#linear-gradient-2"/><radialGradient id="radial-gradient" cx="53.87" cy="24.28" r="1.42" gradientUnits="userSpaceOnUse"><stop offset="0" stop-color="#febf10"/><stop offset="0.43" stop-color="#febd11"/><stop offset="0.65" stop-color="#fcb514"/><stop offset="0.84" stop-color="#faa719"/><stop offset="0.86" stop-color="#faa51a"/><stop offset="0.98" stop-color="#f9a11b"/></radialGradient><linearGradient id="linear-gradient-7" x1="48.94" y1="27.75" x2="53.52" y2="27.75" xlink:href="#linear-gradient-3"/><radialGradient id="radial-gradient-2" cx="13.96" cy="18.44" r="7.61" xlink:href="#radial-gradient"/><linearGradient id="linear-gradient-8" x1="8.05" y1="15.13" x2="20.11" y2="15.13" xlink:href="#linear-gradient-2"/><linearGradient id="linear-gradient-9" x1="9.94" y1="28.17" x2="18.66" y2="28.17" xlink:href="#linear-gradient"/><linearGradient id="linear-gradient-10" x1="12.38" y1="28.17" x2="16.21" y2="28.17" xlink:href="#linear-gradient-2"/></defs><title>truck</title><g id="Layer_2" data-name="Layer 2"><g id="Layer_1-2" data-name="Layer 1"><rect class="cls-1" x="0.08" y="0.08" width="60.62" height="39.04" rx="12.38" ry="12.38"/><path class="cls-2" d="M43.82,24.11a4.07,4.07,0,1,0,4.06,4.06A4.07,4.07,0,0,0,43.82,24.11Z"/><path class="cls-3" d="M43.82,30a1.79,1.79,0,1,1,1.78-1.79A1.79,1.79,0,0,1,43.82,30Z"/><path class="cls-4" d="M6.4,26.69H8.63a4.41,4.41,0,0,0-.1.89,4.53,4.53,0,0,0,.07.74H6.4Z"/><path class="cls-5" d="M19.63,26.69h1.7v1.63H19.66a6,6,0,0,0,.05-.74A5.17,5.17,0,0,0,19.63,26.69Z"/><path class="cls-6" d="M38.85,27.58a4.52,4.52,0,0,0-.06.74,3.39,3.39,0,0,0,0,.45h-17V27.58Z"/><path class="cls-7" d="M22.13,6.66v4h-.34V27.24H38.91a5.09,5.09,0,0,1,9.78-.56l.2.13h4.17V22.24h1.31V6.66Z"/><rect class="cls-8" x="53.47" y="22.31" width="0.79" height="3.94"/><path class="cls-9" d="M48.94,27.15h4.58v1.19H49c0-.15,0-.29,0-.45A4.62,4.62,0,0,0,48.94,27.15Z"/><path class="cls-10" d="M6.55,18v8.26H9a5.42,5.42,0,0,1,10.51,0h1.82V10.63H9.91Z"/><polygon class="cls-11" points="20.11 11.82 20.11 15.69 15.69 15.69 12.42 18.44 8.05 18.44 10.49 11.82 20.11 11.82"/><path class="cls-12" d="M14.3,23.81a4.37,4.37,0,1,0,4.36,4.36A4.36,4.36,0,0,0,14.3,23.81Z"/><path class="cls-13" d="M14.3,30.08a1.91,1.91,0,1,1,1.91-1.91A1.91,1.91,0,0,1,14.3,30.08Z"/></g></g></svg>